<svg width="24" height="24" viewBox="0 0 24 24" fill="none" xmlns="http://www.w3.org/2000/svg">
<g clip-path="url(#clip0_2200_593)">
<path d="M12 21.3477L16.9497 16.3979C19.6834 13.6643 19.6834 9.23216 16.9497 6.49849C14.2161 3.76482 9.78392 3.76482 7.05025 6.49849C4.31658 9.23216 4.31658 13.6643 7.05025 16.3979L12 21.3477ZM12 24.1761L5.63604 17.8122C2.12132 14.2974 2.12132 8.599 5.63604 5.08428C9.15076 1.56956 14.8492 1.56956 18.364 5.08428C21.8787 8.599 21.8787 14.2974 18.364 17.8122L12 24.1761ZM12 13.4482C13.1046 13.4482 14 12.5528 14 11.4482C14 10.3437 13.1046 9.44824 12 9.44824C10.8954 9.44824 10 10.3437 10 11.4482C10 12.5528 10.8954 13.4482 12 13.4482ZM12 15.4482C9.79086 15.4482 8 13.6573 8 11.4482C8 9.2391 9.79086 7.44824 12 7.44824C14.2091 7.44824 16 9.2391 16 11.4482C16 13.6573 14.2091 15.4482 12 15.4482Z" fill="white"/>
</g>
<defs>
<clipPath id="clip0_2200_593">
<rect width="24" height="24" fill="white"/>
</clipPath>
</defs>
</svg>
