<svg width="24" height="24" viewBox="0 0 24 24" fill="none" xmlns="http://www.w3.org/2000/svg">
<path d="M2.24283 7.30145L11.4895 1.7557C11.8062 1.56575 12.2019 1.56582 12.5185 1.75588L21.7573 7.30142C21.9079 7.3918 22 7.55452 22 7.73012V20.4471C22 20.9994 21.5523 21.4471 21 21.4471H3C2.44772 21.4471 2 20.9994 2 20.4471V7.73025C2 7.55457 2.09218 7.39181 2.24283 7.30145ZM4 8.57971V19.4471H20V8.57924L12.0037 3.77947L4 8.57971ZM12.0597 14.1454L17.3556 9.68242L18.6444 11.2118L12.074 16.7488L5.36401 11.2188L6.63599 9.6754L12.0597 14.1454Z" fill="white"/>
</svg>
