<svg width="24" height="24" viewBox="0 0 24 24" fill="none" xmlns="http://www.w3.org/2000/svg">
<path d="M9.36556 11.1313C10.302 12.778 11.6712 14.1472 13.3179 15.0836L14.2024 13.8453C14.4965 13.4337 15.0516 13.3065 15.4956 13.549C16.9024 14.3175 18.4571 14.7845 20.0789 14.9129C20.599 14.9541 21 15.3881 21 15.9098V20.3726C21 20.8853 20.6122 21.3149 20.1022 21.3673C19.5723 21.4218 19.0377 21.4492 18.5 21.4492C9.93959 21.4492 3 14.5096 3 5.94922C3 5.41149 3.02742 4.87693 3.08189 4.34698C3.1343 3.83697 3.56394 3.44922 4.07665 3.44922H8.53942C9.0611 3.44922 9.49513 3.85026 9.5363 4.37031C9.66467 5.9921 10.1317 7.54686 10.9002 8.95366C11.1427 9.39762 11.0155 9.95276 10.6039 10.2468L9.36556 11.1313ZM6.84425 10.4744L8.7442 9.11731C8.20547 7.95436 7.83628 6.72105 7.64727 5.44922H5.00907C5.00303 5.61554 5 5.78222 5 5.94922C5 13.405 11.0442 19.4492 18.5 19.4492C18.667 19.4492 18.8337 19.4462 19 19.4401V16.8019C17.7282 16.6129 16.4949 16.2437 15.3319 15.705L13.9748 17.605C13.4258 17.3917 12.8956 17.1407 12.3874 16.8553L12.3293 16.8222C10.3697 15.7079 8.74134 14.0795 7.627 12.1199L7.59394 12.0618C7.30849 11.5536 7.05754 11.0234 6.84425 10.4744Z" fill="white"/>
</svg>
