<svg width="24" height="24" viewBox="0 0 24 24" fill="none" xmlns="http://www.w3.org/2000/svg">
<g clip-path="url(#clip0_2203_2151)">
<path d="M12 21.3487L16.9497 16.3989C19.6834 13.6653 19.6834 9.23314 16.9497 6.49947C14.2161 3.7658 9.78392 3.7658 7.05025 6.49947C4.31658 9.23314 4.31658 13.6653 7.05025 16.3989L12 21.3487ZM12 24.1771L5.63604 17.8132C2.12132 14.2984 2.12132 8.59998 5.63604 5.08526C9.15076 1.57054 14.8492 1.57054 18.364 5.08526C21.8787 8.59998 21.8787 14.2984 18.364 17.8132L12 24.1771ZM12 13.4492C13.1046 13.4492 14 12.5538 14 11.4492C14 10.3446 13.1046 9.44922 12 9.44922C10.8954 9.44922 10 10.3446 10 11.4492C10 12.5538 10.8954 13.4492 12 13.4492ZM12 15.4492C9.79086 15.4492 8 13.6583 8 11.4492C8 9.24008 9.79086 7.44922 12 7.44922C14.2091 7.44922 16 9.24008 16 11.4492C16 13.6583 14.2091 15.4492 12 15.4492Z" fill="white"/>
</g>
<defs>
<clipPath id="clip0_2203_2151">
<rect width="24" height="24" fill="white"/>
</clipPath>
</defs>
</svg>
