<svg width="27" height="27" viewBox="0 0 27 27" fill="none" xmlns="http://www.w3.org/2000/svg">
<path d="M22.5 1.40625H4.5C2.79 1.40625 1.40625 2.79 1.40625 4.5V22.5C1.40625 24.21 2.79 25.5938 4.5 25.5938H22.5C24.21 25.5938 25.5938 24.21 25.5938 22.5V4.5C25.5938 2.79 24.21 1.40625 22.5 1.40625ZM3.09375 4.5C3.09375 3.72375 3.72375 3.09375 4.5 3.09375H22.5C23.2763 3.09375 23.9062 3.72375 23.9062 4.5V5.90625H3.09375V4.5ZM23.9062 22.5C23.9062 23.2763 23.2763 23.9062 22.5 23.9062H4.5C3.72375 23.9062 3.09375 23.2763 3.09375 22.5V7.59375H23.9062V22.5ZM5.9625 16.3462C5.63625 16.02 5.63625 15.48 5.9625 15.1538L8.775 12.3413C9.10125 12.015 9.64125 12.015 9.9675 12.3413C10.2937 12.6675 10.2937 13.2075 9.9675 13.5337L7.75125 15.75L9.9675 17.9662C10.2937 18.2925 10.2937 18.8325 9.9675 19.1588C9.79875 19.3275 9.585 19.4062 9.37125 19.4062C9.1575 19.4062 8.94375 19.3275 8.775 19.1588L5.9625 16.3462ZM17.0212 17.9662L19.2375 15.75L17.0212 13.5337C16.695 13.2075 16.695 12.6675 17.0212 12.3413C17.3475 12.015 17.8875 12.015 18.2138 12.3413L21.0263 15.1538C21.3525 15.48 21.3525 16.02 21.0263 16.3462L18.2138 19.1588C18.045 19.3275 17.8312 19.4062 17.6175 19.4062C17.4037 19.4062 17.19 19.3275 17.0212 19.1588C16.695 18.8325 16.695 18.2925 17.0212 17.9662ZM11.3063 20.0025L14.0625 11.0025C14.1975 10.5637 14.67 10.305 15.12 10.44C15.57 10.575 15.8175 11.0475 15.6825 11.4975L12.9262 20.4975C12.8137 20.8575 12.4763 21.0938 12.1163 21.0938C12.0375 21.0938 11.9475 21.0825 11.8688 21.06C11.4187 20.925 11.1713 20.4525 11.3063 20.0025Z" fill="white"/>
</svg>
