<svg width="33" height="35" viewBox="0 0 33 35" fill="none" xmlns="http://www.w3.org/2000/svg">
<path d="M10.5103 8.91133C10.7359 8.91146 10.9615 8.91139 11.1871 8.91113C11.7958 8.911 12.4045 8.91369 13.0132 8.91692C13.6507 8.91981 14.2882 8.92007 14.9258 8.92062C16.1313 8.92205 17.3369 8.92582 18.5424 8.93045C19.9156 8.93561 21.2888 8.93814 22.662 8.94045C25.4852 8.94525 28.3084 8.95335 31.1316 8.96363C31.0842 9.27901 31.0365 9.59433 30.9887 9.90964C30.9622 10.0852 30.9357 10.2608 30.9083 10.4418C30.7902 11.1715 30.633 11.8897 30.4694 12.6103C30.1938 13.8522 29.9303 15.0957 29.6825 16.3434C29.6355 16.58 29.6355 16.58 29.5875 16.8214C29.4878 17.3242 29.3884 17.827 29.289 18.3299C28.8431 20.5852 28.3935 22.839 27.9071 25.0859C27.2446 28.147 26.6304 31.2182 26.0646 34.2986C24.6458 34.2986 23.227 34.2986 21.7653 34.2986C21.8508 33.8173 21.9363 33.3359 22.0244 32.84C22.0495 32.6971 22.0746 32.5543 22.1004 32.4072C22.3214 31.1786 22.5776 29.9579 22.8337 28.7363C23.0796 27.5627 23.321 26.3882 23.5593 25.2131C23.5937 25.0435 23.6281 24.8739 23.6635 24.6992C23.7339 24.3524 23.8042 24.0056 23.8745 23.6588C24.9462 18.3747 24.9462 18.3747 25.4887 15.9006C25.6451 15.1853 25.7921 14.4701 25.9218 13.7494C25.9622 13.5253 25.9622 13.5253 26.0034 13.2967C26.0236 13.1842 26.0438 13.0717 26.0646 12.9558C23.8862 12.9615 21.7079 12.9708 19.5296 12.984C18.5181 12.9901 17.5066 12.995 16.495 12.9974C15.5183 12.9997 14.5417 13.005 13.565 13.0124C13.1929 13.0146 12.8208 13.0159 12.4486 13.016C11.9263 13.0163 11.4042 13.0205 10.8819 13.0255C10.7289 13.0248 10.576 13.024 10.4184 13.0232C9.20597 13.0412 8.24149 13.2942 7.35121 14.1458C6.73563 15.0873 6.48034 16.1263 6.24401 17.2125C6.21603 17.3377 6.18805 17.4629 6.15923 17.5918C6.06948 17.9944 5.98098 18.3973 5.89253 18.8001C5.83103 19.0772 5.76945 19.3543 5.7078 19.6313C5.53136 20.4256 5.35653 21.2202 5.18238 22.015C5.15897 22.1218 5.13556 22.2287 5.11144 22.3387C4.89904 23.3087 4.68804 24.279 4.48063 25.2501C4.43457 25.4571 4.38488 25.6632 4.33245 25.8687C4.04437 27.048 4.2376 27.9963 4.83091 29.0337C5.91781 30.1206 7.18036 30.2521 8.64758 30.2633C8.89402 30.2628 9.14046 30.2622 9.38689 30.2615C9.64289 30.2635 9.89888 30.2658 10.1549 30.2685C10.8238 30.2746 11.4927 30.2762 12.1616 30.2768C12.8462 30.2782 13.5307 30.284 14.2152 30.2894C15.5547 30.2992 16.8942 30.3044 18.2337 30.3064C18.1912 30.4917 18.1486 30.677 18.1048 30.8678C18.0486 31.1158 17.9924 31.3637 17.9363 31.6116C17.9082 31.7331 17.8802 31.8546 17.8514 31.9799C17.6774 32.7515 17.5517 33.5122 17.466 34.2986C15.9964 34.3129 14.5267 34.3238 13.057 34.3305C12.3744 34.3336 11.6918 34.338 11.0092 34.345C10.3492 34.3517 9.68914 34.3553 9.02903 34.3569C8.77856 34.358 8.52808 34.3602 8.27762 34.3636C5.73841 34.3961 3.86648 33.8562 1.98672 32.0818C0.622699 30.6345 0.00124259 28.8693 0 26.8862C0.0933079 24.6383 0.746583 22.4029 1.26012 20.2223C1.3919 19.6598 1.52 19.0965 1.64844 18.5332C3.19077 11.8011 3.19077 11.8011 5.47928 10.18C7.17184 9.15368 8.5404 8.89533 10.5103 8.91133Z" fill="url(#paint0_linear_2200_1846)"/>
<path d="M9.76389 20.865C13.1418 20.865 16.5197 20.865 20 20.865C19.8096 22.1769 19.6138 23.4717 19.3692 24.7692C19.3246 25.0082 19.3246 25.0082 19.2791 25.252C19.2171 25.5841 19.1548 25.9162 19.0923 26.2483C18.9966 26.7574 18.9016 27.2667 18.8067 27.776C18.746 28.1005 18.6852 28.425 18.6244 28.7494C18.5961 28.9013 18.5677 29.0532 18.5386 29.2096C18.512 29.3503 18.2039 30.4061 18.2039 30.4061C18.2039 30.4061 18.2278 30.2379 18.2039 30.365C18.1354 30.6938 18.3567 29.8387 18.2039 30.365C16.8426 30.365 15.4025 30.365 14 30.365C14.103 29.1827 14.2681 28.5901 14.5 27.4439C14.5272 27.3042 14.5544 27.1644 14.5824 27.0204C14.7835 26.0033 14.7835 26.0033 14.9583 25.6018C12.9921 25.6018 11.0258 25.6018 9 25.6018C9.17144 23.6332 9.17144 23.6332 9.38194 22.74C9.52752 22.1139 9.65293 21.502 9.76389 20.865Z" fill="url(#paint1_linear_2200_1846)"/>
<path d="M31.2565 0.221101C32.0662 0.713316 32.7392 1.42096 32.9743 2.36114C33.0826 3.30016 32.8457 4.02385 32.3601 4.81787C31.8238 5.41009 31.1931 5.84856 30.394 5.94427C29.4353 5.95647 28.797 5.96081 28.0608 5.27851C27.2142 4.39163 26.8958 3.71093 26.917 2.4877C27.0613 1.58078 27.667 1.0386 28.3295 0.451419C29.2105 -0.160398 30.2512 -0.0590443 31.2565 0.221101Z" fill="url(#paint2_linear_2200_1846)"/>
<defs>
<linearGradient id="paint0_linear_2200_1846" x1="15.5658" y1="8.91064" x2="15.5658" y2="34.3649" gradientUnits="userSpaceOnUse">
<stop stop-color="#06B6D4"/>
<stop offset="1" stop-color="#2F2C8F"/>
</linearGradient>
<linearGradient id="paint1_linear_2200_1846" x1="14.5" y1="20.865" x2="14.5" y2="30.4427" gradientUnits="userSpaceOnUse">
<stop stop-color="#06B6D4"/>
<stop offset="1" stop-color="#2F2C8F"/>
</linearGradient>
<linearGradient id="paint2_linear_2200_1846" x1="29.9581" y1="0" x2="29.9581" y2="5.94715" gradientUnits="userSpaceOnUse">
<stop stop-color="#06B6D4"/>
<stop offset="1" stop-color="#2F2C8F"/>
</linearGradient>
</defs>
</svg>
