<svg width="190" height="169" viewBox="0 0 190 169" fill="none" xmlns="http://www.w3.org/2000/svg">
<g opacity="0.1">
<path d="M84.3715 58.613C85.2834 58.8334 86.1956 59.0533 87.1082 59.2728C89.5693 59.8663 92.0257 60.4665 94.4813 61.068C97.054 61.6968 99.631 62.3194 102.208 62.9426C107.079 64.1221 111.947 65.3071 116.813 66.4943C122.357 67.8462 127.904 69.1918 133.452 70.5369C144.858 73.3025 156.259 76.076 167.656 78.8547C166.946 79.5645 166.234 80.2739 165.522 80.983C165.126 81.3781 164.73 81.7732 164.321 82.1802C162.643 83.8142 160.826 85.3824 158.979 86.9503C155.821 89.6583 152.71 92.3819 149.655 95.1312C149.076 95.6525 149.076 95.6525 148.485 96.1843C147.255 97.2923 146.025 98.4007 144.796 99.5092C139.283 104.48 133.757 109.444 128.094 114.356C120.379 121.047 112.842 127.81 105.487 134.642C99.7506 133.258 94.0146 131.874 88.1048 130.448C89.2425 129.378 90.3802 128.308 91.5524 127.205C91.8887 126.887 92.2251 126.569 92.5716 126.241C95.4866 123.512 98.5306 120.836 101.576 118.157C104.501 115.584 107.409 113.004 110.306 110.419C110.724 110.046 111.142 109.674 111.573 109.289C112.428 108.527 113.283 107.764 114.138 107.001C127.165 95.3801 127.165 95.3801 133.429 89.9787C135.238 88.4167 137.009 86.8456 138.719 85.2446C139.251 84.7468 139.251 84.7468 139.794 84.2389C140.061 83.9889 140.327 83.739 140.602 83.4815C131.786 81.3702 122.964 79.2674 114.135 77.1742C110.036 76.202 105.938 75.2271 101.844 74.2459C97.8919 73.2988 93.9347 72.3587 89.9741 71.4235C88.4658 71.066 86.9593 70.7059 85.4546 70.3431C83.3423 69.8345 81.2245 69.3351 79.1046 68.8377C78.4875 68.6866 77.8703 68.5355 77.2345 68.3799C72.3032 67.2403 67.9875 66.906 62.9871 68.0788C58.9493 69.7351 56.2076 71.9769 53.4651 74.3499C53.146 74.6227 52.8269 74.8955 52.4982 75.1765C51.473 76.054 50.4524 76.9334 49.4319 77.8128C48.7274 78.417 48.0226 79.021 47.3176 79.625C45.2974 81.3568 43.2831 83.0911 41.2714 84.8264C41.001 85.0596 40.7306 85.2929 40.452 85.5332C37.9973 87.6512 35.5478 89.7712 33.1116 91.8967C32.5848 92.3479 32.0447 92.7937 31.4947 93.235C28.3897 95.7808 27.6107 98.2425 28.3025 101.308C30.9085 104.974 35.7965 106.521 41.7101 107.979C42.7072 108.218 43.7046 108.457 44.702 108.696C45.7337 108.95 46.7648 109.206 47.7954 109.462C50.4898 110.129 53.1913 110.785 55.8948 111.439C58.66 112.11 61.418 112.792 64.1766 113.473C69.576 114.803 74.983 116.122 80.3954 117.434C79.9185 117.836 79.4416 118.239 78.9503 118.654C78.3152 119.193 77.6802 119.733 77.0453 120.272C76.7321 120.536 76.4189 120.8 76.0962 121.072C74.1234 122.752 72.3635 124.453 70.7231 126.254C64.7579 124.855 58.7983 123.447 52.8454 122.03C50.0804 121.371 47.3137 120.716 44.5425 120.067C41.8628 119.439 39.1884 118.804 36.517 118.164C35.5025 117.922 34.4862 117.683 33.4681 117.447C23.1487 115.048 16.4688 111.927 11.7885 105.84C8.65508 101.04 9.04689 96.2027 12.3048 91.4476C16.3805 86.1502 22.6995 81.4291 28.3634 76.7029C29.8217 75.4831 31.2665 74.2577 32.7125 73.0328C50.0244 58.3999 50.0244 58.3999 61.9439 56.7463C70.4754 55.9372 76.4336 56.653 84.3715 58.613Z" fill="white"/>
<path d="M61.6871 86.5386C75.3438 89.8338 89.0006 93.1291 103.071 96.5241C100.143 99.4831 97.2208 102.396 94.0972 105.268C93.5238 105.797 93.5238 105.797 92.9387 106.337C92.1413 107.073 91.3431 107.808 90.5443 108.543C89.3196 109.67 88.0977 110.798 86.8761 111.926C86.0967 112.645 85.3171 113.364 84.5373 114.082C84.1729 114.418 83.8086 114.755 83.4331 115.101C83.0944 115.413 80.1115 117.643 80.1115 117.643C80.1115 117.643 80.4848 117.263 80.1791 117.544C79.361 118.266 81.6628 116.432 80.1791 117.544C74.6757 116.217 68.8533 114.812 63.1831 113.444C65.5445 110.71 67.1873 109.45 70.0106 106.929C70.3504 106.621 70.6902 106.312 71.0403 105.994C73.5271 103.752 73.5271 103.752 74.8944 102.961C66.945 101.043 58.9955 99.1244 50.8052 97.1482C54.7373 92.5964 54.7373 92.5964 57.058 90.6606C58.6766 89.3019 60.1904 87.9575 61.6871 86.5386Z" fill="white"/>
<path d="M182.545 58.0198C185.009 59.9896 186.565 62.3424 185.969 64.8254C184.862 67.182 182.713 68.6857 179.444 70.1153C176.301 71.0118 173.03 71.4475 169.642 70.8975C165.745 69.9915 163.158 69.3792 161.304 67.0255C159.341 64.0737 159.173 62.1314 161.271 59.2199C163.347 57.1866 166.688 56.4779 170.332 55.7166C174.901 55.1094 178.942 56.3676 182.545 58.0198Z" fill="white"/>
</g>
</svg>
