<svg width="99" height="64" viewBox="0 0 99 64" fill="none" xmlns="http://www.w3.org/2000/svg">
<g opacity="0.1">
<path d="M32.6918 17.0383C33.348 17.0496 34.0042 17.0606 34.6605 17.0713C36.4311 17.1011 38.2013 17.1358 39.9716 17.1714C41.8257 17.2079 43.6801 17.2398 45.5345 17.2722C49.041 17.3342 52.5474 17.4002 56.0536 17.4677C60.0475 17.5444 64.0416 17.6165 68.0357 17.6882C76.2473 17.8359 84.4587 17.9892 92.6698 18.1463C92.5059 18.6878 92.3409 19.2293 92.1755 19.7707C92.0838 20.0723 91.992 20.3738 91.8975 20.6845C91.493 21.9372 90.976 23.168 90.4402 24.4028C89.535 26.531 88.6651 28.6624 87.8405 30.8021C87.684 31.2078 87.684 31.2078 87.5244 31.6218C87.1925 32.484 86.8615 33.3463 86.5306 34.2086C85.0459 38.0761 83.5503 41.9409 81.9485 45.792C79.7667 51.0385 77.7243 56.3049 75.8221 61.5896C71.6952 61.5196 67.5684 61.4495 63.3165 61.3774C63.6053 60.5514 63.8941 59.7255 64.1916 58.8745C64.2764 58.6294 64.3613 58.3844 64.4487 58.1319C65.1939 56.024 66.0405 53.9314 66.8873 51.8371C67.7003 49.8252 68.5001 47.8117 69.291 45.7967C69.4052 45.506 69.5194 45.2152 69.6371 44.9157C69.8705 44.3211 70.104 43.7265 70.3374 43.1318C73.8945 34.0716 73.8945 34.0716 75.6787 29.8315C76.1931 28.6056 76.6802 27.3793 77.1174 26.1429C77.2536 25.7583 77.2536 25.7583 77.3926 25.366C77.4607 25.173 77.5287 24.98 77.5988 24.7812C71.262 24.6835 64.9251 24.592 58.5878 24.5073C55.6449 24.4679 52.7023 24.4265 49.7597 24.3806C46.9185 24.3364 44.0773 24.2974 41.2358 24.2618C40.1532 24.2473 39.0706 24.2311 37.9882 24.2129C36.4689 24.1878 34.9497 24.1692 33.4301 24.1521C32.9852 24.1432 32.5403 24.1343 32.082 24.1251C28.5539 24.0963 25.7274 24.4851 23.0669 25.9098C21.1979 27.5031 20.3689 29.2826 19.591 31.1441C19.4992 31.3586 19.4074 31.5731 19.3128 31.7941C19.0182 32.484 18.7273 33.1744 18.4365 33.8648C18.2345 34.3396 18.0323 34.8144 17.8299 35.2891C17.2506 36.6503 16.6759 38.0121 16.1032 39.3742C16.0262 39.5573 15.9492 39.7404 15.8699 39.929C15.1713 41.5914 14.4768 43.2544 13.7927 44.9189C13.6414 45.2736 13.4797 45.6267 13.3101 45.9785C12.374 47.998 12.8571 49.6431 14.4966 51.4615C17.5676 53.3896 21.2291 53.6788 25.496 53.7705C26.2129 53.7817 26.9298 53.7928 27.6466 53.8038C28.3911 53.8199 29.1356 53.8366 29.88 53.8539C31.8252 53.8974 33.7706 53.9331 35.7164 53.9672C37.7074 54.0035 39.698 54.0472 41.6887 54.0902C45.5842 54.1734 49.4801 54.2483 53.3764 54.318C53.2372 54.6355 53.098 54.9529 52.9545 55.2799C52.7704 55.7047 52.5864 56.1294 52.4024 56.5542C52.3108 56.7624 52.2192 56.9707 52.1249 57.1852C51.5547 58.5074 51.1256 59.8131 50.8109 61.1652C46.5348 61.1173 42.2591 61.0635 37.9835 61.0024C35.9976 60.9743 34.0118 60.948 32.0258 60.9264C30.1052 60.9054 28.185 60.8791 26.2648 60.8492C25.5361 60.8388 24.8074 60.8303 24.0786 60.8237C16.6899 60.7544 11.2898 59.731 5.96972 56.578C2.12258 54.0147 0.461855 50.9397 0.623331 47.5194C1.08187 43.6472 3.16818 39.8243 4.84345 36.0889C5.27362 35.1253 5.69313 34.1601 6.11361 33.195C11.1603 21.6608 11.1603 21.6608 17.952 18.9779C22.9607 17.2914 26.9631 16.9134 32.6918 17.0383Z" fill="white"/>
<path d="M29.5253 37.6167C39.3509 37.7834 49.1764 37.9501 59.2998 38.1219C58.6367 40.375 57.9593 42.5984 57.1399 44.8241C56.9903 45.234 56.9903 45.234 56.8377 45.6522C56.6295 46.222 56.4207 46.7917 56.2114 47.3613C55.8906 48.2346 55.5719 49.1082 55.2535 49.9819C55.0498 50.5385 54.846 51.0951 54.6421 51.6518C54.5471 51.9123 54.452 52.1727 54.3541 52.4411C54.2652 52.6825 53.281 54.4881 53.281 54.4881C53.281 54.4881 53.3645 54.1992 53.2844 54.4172C53.0578 54.981 53.7727 53.5171 53.2844 54.4172C49.3249 54.35 45.1359 54.2789 41.0563 54.2097C41.4542 52.1758 41.984 51.1619 42.7539 49.1967C42.8446 48.957 42.9352 48.7173 43.0287 48.4703C43.6985 46.7261 43.6985 46.7261 44.2404 46.0424C38.521 45.9453 32.8017 45.8483 26.909 45.7483C27.5715 42.3616 27.5715 42.3616 28.2582 40.8315C28.7338 39.759 29.1495 38.7099 29.5253 37.6167Z" fill="white"/>
<path d="M93.7599 3.0748C96.0743 3.96365 97.973 5.21729 98.5784 6.85035C98.8154 8.47516 98.0661 9.71156 96.5874 11.057C94.9781 12.0519 93.107 12.7769 90.7747 12.9026C87.985 12.8763 86.128 12.8523 84.0434 11.6392C81.6548 10.0679 80.7851 8.87821 80.9487 6.76964C81.4438 5.21267 83.251 4.30751 85.2269 3.32754C87.8405 2.31587 90.8592 2.54204 93.7599 3.0748Z" fill="white"/>
</g>
</svg>
