<svg xmlns="http://www.w3.org/2000/svg" version="1.1" xmlns:xlink="http://www.w3.org/1999/xlink" width="1000" height="1000"><metadata><rdf:RDF xmlns:rdf="http://www.w3.org/1999/02/22-rdf-syntax-ns#" xmlns:dc="http://purl.org/dc/elements/1.1/"><rdf:Description><dc:creator>RealFaviconGenerator</dc:creator><dc:source>https://realfavicongenerator.net</dc:source></rdf:Description></rdf:RDF></metadata><g clip-path="url(#SvgjsClipPath1137)"><rect width="1000" height="1000" fill="#ffffff"></rect><g transform="matrix(25.714285714285715,0,0,25.714285714285715,75.71428571428572,50)"><svg xmlns="http://www.w3.org/2000/svg" width="33" height="35" viewBox="0 0 33 35" fill="none"><path d="M10.5103 8.9113C10.7359 8.91143 10.9615 8.91136 11.1871 8.9111C11.7958 8.91097 12.4045 8.91366 13.0132 8.91689C13.6507 8.91978 14.2882 8.92004 14.9258 8.92059C16.1313 8.92202 17.3369 8.92579 18.5424 8.93042C19.9156 8.93558 21.2888 8.93811 22.662 8.94042C25.4852 8.94522 28.3084 8.95332 31.1316 8.9636C31.0842 9.27897 31.0365 9.5943 30.9887 9.90961C30.9622 10.0852 30.9357 10.2608 30.9083 10.4417C30.7902 11.1715 30.633 11.8897 30.4694 12.6103C30.1938 13.8522 29.9303 15.0956 29.6825 16.3434C29.6355 16.58 29.6355 16.58 29.5875 16.8214C29.4878 17.3242 29.3884 17.827 29.289 18.3299C28.8431 20.5851 28.3935 22.8389 27.9071 25.0859C27.2446 28.1469 26.6304 31.2182 26.0646 34.2986C24.6458 34.2986 23.227 34.2986 21.7653 34.2986C21.8508 33.8172 21.9363 33.3359 22.0244 32.8399C22.0495 32.6971 22.0746 32.5543 22.1004 32.4072C22.3214 31.1786 22.5776 29.9579 22.8337 28.7362C23.0796 27.5626 23.321 26.3882 23.5593 25.213C23.5937 25.0435 23.6281 24.8739 23.6635 24.6992C23.7339 24.3524 23.8042 24.0056 23.8745 23.6588C24.9462 18.3747 24.9462 18.3747 25.4887 15.9006C25.6451 15.1853 25.7921 14.4701 25.9218 13.7494C25.9622 13.5253 25.9622 13.5253 26.0034 13.2966C26.0236 13.1842 26.0438 13.0717 26.0646 12.9558C23.8862 12.9615 21.7079 12.9707 19.5296 12.984C18.5181 12.9901 17.5066 12.995 16.495 12.9974C15.5183 12.9997 14.5417 13.005 13.565 13.0123C13.1929 13.0146 12.8208 13.0158 12.4486 13.016C11.9263 13.0163 11.4042 13.0205 10.8819 13.0255C10.7289 13.0247 10.576 13.024 10.4184 13.0232C9.20597 13.0411 8.24149 13.2942 7.35121 14.1458C6.73563 15.0872 6.48034 16.1263 6.24401 17.2125C6.21603 17.3376 6.18805 17.4628 6.15923 17.5918C6.06948 17.9944 5.98098 18.3972 5.89253 18.8001C5.83103 19.0772 5.76945 19.3542 5.7078 19.6313C5.53136 20.4255 5.35653 21.2202 5.18238 22.015C5.15897 22.1218 5.13556 22.2286 5.11144 22.3387C4.89904 23.3087 4.68804 24.279 4.48063 25.2501C4.43457 25.457 4.38488 25.6632 4.33245 25.8687C4.04437 27.0479 4.2376 27.9962 4.83091 29.0337C5.91781 30.1206 7.18036 30.2521 8.64758 30.2633C8.89402 30.2627 9.14046 30.2621 9.38689 30.2614C9.64289 30.2635 9.89888 30.2658 10.1549 30.2685C10.8238 30.2746 11.4927 30.2762 12.1616 30.2768C12.8462 30.2782 13.5307 30.284 14.2152 30.2893C15.5547 30.2992 16.8942 30.3043 18.2337 30.3064C18.1912 30.4917 18.1486 30.6769 18.1048 30.8678C18.0486 31.1157 17.9924 31.3636 17.9363 31.6116C17.9082 31.7331 17.8802 31.8546 17.8514 31.9798C17.6774 32.7515 17.5517 33.5122 17.466 34.2986C15.9964 34.3129 14.5267 34.3238 13.057 34.3304C12.3744 34.3336 11.6918 34.3379 11.0092 34.3449C10.3492 34.3517 9.68914 34.3553 9.02903 34.3569C8.77856 34.358 8.52808 34.3602 8.27762 34.3635C5.73841 34.396 3.86648 33.8562 1.98672 32.0818C0.622699 30.6345 0.00124259 28.8693 0 26.8861C0.0933079 24.6382 0.746583 22.4029 1.26011 20.2223C1.3919 19.6598 1.52 19.0965 1.64844 18.5332C3.19077 11.8011 3.19077 11.8011 5.47928 10.18C7.17184 9.15365 8.5404 8.8953 10.5103 8.9113Z" fill="url(#paint0_linear_388_342)"></path><path d="M9.76389 20.8649C13.1418 20.8649 16.5197 20.8649 20 20.8649C19.8096 22.1768 19.6138 23.4716 19.3692 24.7691C19.3246 25.0081 19.3246 25.0081 19.2791 25.2519C19.2171 25.5841 19.1548 25.9162 19.0923 26.2482C18.9966 26.7573 18.9016 27.2666 18.8067 27.7759C18.746 28.1004 18.6852 28.4249 18.6244 28.7494C18.5961 28.9012 18.5677 29.0531 18.5386 29.2095C18.512 29.3502 18.2039 30.406 18.2039 30.406C18.2039 30.406 18.2278 30.2378 18.2039 30.3649C18.3567 29.8386 18.1354 30.6938 18.2039 30.3649C16.8426 30.3649 15.4025 30.3649 14 30.3649C14.103 29.1826 14.2681 28.59 14.5 27.4439C14.5272 27.3041 14.5544 27.1643 14.5824 27.0203C14.7835 26.0032 14.7835 26.0032 14.9583 25.6018C12.9921 25.6018 11.0258 25.6018 9 25.6018C9.17144 23.6331 9.17144 23.6331 9.38194 22.7399C9.52752 22.1139 9.65293 21.502 9.76389 20.8649Z" fill="url(#paint1_linear_388_342)"></path><path d="M31.2562 0.221101C32.066 0.713316 32.739 1.42096 32.974 2.36114C33.0824 3.30016 32.8455 4.02385 32.3598 4.81787C31.8235 5.41009 31.1928 5.84856 30.3937 5.94427C29.435 5.95647 28.7967 5.96081 28.0606 5.27851C27.214 4.39163 26.8955 3.71093 26.9168 2.4877C27.061 1.58078 27.6668 1.0386 28.3293 0.451419C29.2103 -0.160398 30.251 -0.0590443 31.2562 0.221101Z" fill="url(#paint2_linear_388_342)"></path><defs>
<linearGradient id="paint0_linear_388_342" x1="15.5658" y1="8.91061" x2="15.5658" y2="34.3649" gradientUnits="userSpaceOnUse">
<stop stop-color="#06B6D4"></stop>
<stop offset="1" stop-color="#2F2C8F"></stop>
</linearGradient>
<linearGradient id="paint1_linear_388_342" x1="14.5" y1="20.8649" x2="14.5" y2="30.4426" gradientUnits="userSpaceOnUse">
<stop stop-color="#06B6D4"></stop>
<stop offset="1" stop-color="#2F2C8F"></stop>
</linearGradient>
<linearGradient id="paint2_linear_388_342" x1="29.9578" y1="0" x2="29.9578" y2="5.94715" gradientUnits="userSpaceOnUse">
<stop stop-color="#06B6D4"></stop>
<stop offset="1" stop-color="#2F2C8F"></stop>
</linearGradient>
<clipPath id="SvgjsClipPath1137"><rect width="1000" height="1000" x="0" y="0" rx="0" ry="0"></rect></clipPath></defs></svg></g></g></svg>