<svg width="23" height="23" viewBox="0 0 23 23" fill="none" xmlns="http://www.w3.org/2000/svg">
<path d="M0.750572 11.25C0.773312 11.25 0.796026 11.2485 0.818572 11.2455C4.49154 10.7471 8.07382 9.7235 11.4556 8.206C14.8707 6.66947 18.0437 4.64352 20.8746 2.192L20.2656 4.629C20.2335 4.75756 20.2538 4.89359 20.3219 5.00722C20.3901 5.12084 20.5006 5.20277 20.6291 5.235C20.6688 5.24484 20.7096 5.24987 20.7506 5.25C20.862 5.24986 20.9702 5.21249 21.058 5.14382C21.1458 5.07516 21.2081 4.97913 21.2351 4.871L22.2351 0.871C22.2534 0.79735 22.2548 0.720484 22.239 0.64623C22.2233 0.571976 22.1908 0.502283 22.1441 0.442436C22.0975 0.382589 22.0378 0.334159 21.9696 0.300817C21.9014 0.267475 21.8265 0.250097 21.7506 0.25H17.7506C17.618 0.25 17.4908 0.302678 17.397 0.396447C17.3032 0.490215 17.2506 0.617392 17.2506 0.75C17.2506 0.882608 17.3032 1.00979 17.397 1.10355C17.4908 1.19732 17.618 1.25 17.7506 1.25H20.4351C17.6235 3.72078 14.4588 5.75791 11.0456 7.294C7.7511 8.77224 4.26125 9.76927 0.683072 10.2545C0.557362 10.2715 0.442805 10.3356 0.362607 10.4339C0.282409 10.5322 0.242565 10.6573 0.251146 10.7838C0.259728 10.9104 0.316093 11.029 0.408824 11.1155C0.501556 11.2021 0.623721 11.2501 0.750572 11.25Z" fill="#2F2C8F" stroke="#2F2C8F" stroke-width="0.5"/>
<path d="M21.751 21.25H21.251V7.75C21.251 7.61739 21.1983 7.49021 21.1045 7.39645C21.0108 7.30268 20.8836 7.25 20.751 7.25H15.751C15.6184 7.25 15.4912 7.30268 15.3974 7.39645C15.3037 7.49021 15.251 7.61739 15.251 7.75V21.25H14.251V10.75C14.251 10.6174 14.1983 10.4902 14.1045 10.3964C14.0108 10.3027 13.8836 10.25 13.751 10.25H8.75098C8.61837 10.25 8.49119 10.3027 8.39742 10.3964C8.30365 10.4902 8.25098 10.6174 8.25098 10.75V21.25H7.25098V13.75C7.25098 13.6174 7.1983 13.4902 7.10453 13.3964C7.01076 13.3027 6.88358 13.25 6.75098 13.25H1.75098C1.61837 13.25 1.49119 13.3027 1.39742 13.3964C1.30366 13.4902 1.25098 13.6174 1.25098 13.75V21.25H0.750977C0.618368 21.25 0.491191 21.3027 0.397423 21.3964C0.303655 21.4902 0.250977 21.6174 0.250977 21.75C0.250977 21.8826 0.303655 22.0098 0.397423 22.1036C0.491191 22.1973 0.618368 22.25 0.750977 22.25H21.751C21.8836 22.25 22.0108 22.1973 22.1045 22.1036C22.1983 22.0098 22.251 21.8826 22.251 21.75C22.251 21.6174 22.1983 21.4902 22.1045 21.3964C22.0108 21.3027 21.8836 21.25 21.751 21.25ZM16.251 8.25H20.251V21.25H16.251V8.25ZM9.25098 11.25H13.251V21.25H9.25098V11.25ZM2.25098 14.25H6.25098V21.25H2.25098V14.25Z" fill="#2F2C8F" stroke="#2F2C8F" stroke-width="0.5"/>
</svg>
