<svg width="24" height="24" viewBox="0 0 24 24" fill="none" xmlns="http://www.w3.org/2000/svg">
<g clip-path="url(#clip0_356_244)">
<path d="M16.8025 6.37476C16.3825 6.37476 16 6.54351 15.715 6.81351C15.4375 6.35601 14.9387 6.04851 14.365 6.04851C13.9075 6.04851 13.495 6.24726 13.2062 6.56226C13.1575 6.49476 13.1088 6.43101 13.0488 6.37101C12.76 6.08226 12.3775 5.92101 11.9725 5.90976C11.9575 5.90976 11.9425 5.90601 11.9312 5.90601C11.3987 5.90601 10.9263 6.17226 10.6413 6.58101C10.3525 6.27726 9.9475 6.08601 9.4975 6.08601C8.6275 6.08601 7.91875 6.79476 7.91875 7.66476V8.40726H7.1575C6.2425 8.40726 5.5 9.14976 5.5 10.0648V14.8385C5.5 15.2923 5.69875 15.716 6.04375 16.0085L7.63 17.3435C7.81 17.4973 7.915 17.7185 7.915 17.9548V23.1823C7.915 23.291 7.96375 23.3923 8.04625 23.4598C8.11375 23.516 8.19625 23.546 8.27875 23.546C8.30125 23.546 8.32 23.546 8.3425 23.5423L16.8663 22.046C17.0388 22.016 17.1625 21.8698 17.1663 21.6935L17.2375 17.5835C17.2375 17.3998 17.3012 17.2198 17.4175 17.0773L18.04 16.316C18.2612 16.046 18.385 15.701 18.385 15.3485V10.976V7.95351C18.385 7.08351 17.6762 6.37476 16.8025 6.37476ZM16.8063 7.10226C17.275 7.10226 17.6613 7.48476 17.6613 7.95726V10.9798C17.6613 11.4523 17.2788 11.8348 16.8063 11.8348C16.3375 11.8348 15.9513 11.4523 15.9513 10.9798V7.95726C15.9513 7.48476 16.3338 7.10226 16.8063 7.10226ZM13.5138 7.62726C13.5138 7.15476 13.8963 6.77226 14.3688 6.77226C14.8413 6.77226 15.2238 7.15476 15.2238 7.62726V11.066C15.2238 11.5385 14.8413 11.921 14.3688 11.921C13.9 11.921 13.5138 11.5385 13.5138 11.066V7.62726ZM11.08 7.48476C11.08 7.02351 11.4475 6.64851 11.9012 6.63351H11.935H11.9388C12.1675 6.63351 12.3775 6.72351 12.5388 6.88101C12.7 7.04226 12.7863 7.25601 12.7863 7.48476V7.62351V7.62726V10.916V10.9198C12.7863 11.3885 12.4037 11.771 11.935 11.771C11.9237 11.771 11.9162 11.771 11.905 11.771C11.4587 11.756 11.1063 11.4035 11.08 10.931V10.8785C11.8075 10.4548 12.2988 9.66726 12.2988 8.76351C12.2988 8.56101 12.1375 8.39976 11.935 8.39976H11.08V7.64976V7.48476ZM8.6425 7.66851C8.6425 7.19976 9.025 6.81726 9.4975 6.81726C9.96625 6.81726 10.3488 7.19976 10.3488 7.66851V8.41101H8.6425V7.66851ZM17.4775 15.8585L16.855 16.6198C16.6337 16.8935 16.51 17.2348 16.51 17.5798L16.4425 21.3823L8.6425 22.751V17.9548C8.6425 17.501 8.44375 17.0773 8.09875 16.7848L6.5125 15.4498C6.3325 15.296 6.2275 15.0748 6.2275 14.8385V10.0648C6.2275 9.55101 6.64375 9.13476 7.1575 9.13476H8.27875H8.2825C8.2825 9.13476 8.2825 9.13476 8.28625 9.13476H10.7162H10.72C10.72 9.13476 10.72 9.13476 10.7238 9.13476H11.5375C11.3688 9.91101 10.6788 10.4923 9.85375 10.4923H8.28625H7.66375C7.46125 10.4923 7.3 10.6535 7.3 10.856C7.3 11.0585 7.46125 11.2198 7.66375 11.2198H7.9225V12.8248C7.9225 13.0273 8.08375 13.1885 8.28625 13.1885C8.48875 13.1885 8.65 13.0273 8.65 12.8248V11.2198H9.85375C10.03 11.2198 10.2025 11.201 10.3713 11.1635C10.3787 11.1935 10.3825 11.2273 10.3975 11.2535C10.5512 11.9698 11.1775 12.4985 11.9388 12.5023C11.9538 12.5023 11.965 12.5023 11.98 12.4985C12.4225 12.4873 12.82 12.2923 13.1013 11.9848C13.39 12.3785 13.8513 12.641 14.3763 12.641C14.89 12.641 15.34 12.3898 15.6288 12.011C15.9175 12.341 16.3375 12.551 16.81 12.551C17.125 12.551 17.4175 12.4573 17.665 12.296V15.3448C17.6575 15.536 17.5937 15.716 17.4775 15.8585Z" fill="#2F2C8F" stroke="#2F2C8F" stroke-width="0.5"/>
<path d="M11.8276 3.51375C12.0301 3.51375 12.1914 3.3525 12.1914 3.15V0.36375C12.1914 0.16125 12.0301 0 11.8276 0C11.6251 0 11.4639 0.16125 11.4639 0.36375V3.15C11.4639 3.3525 11.6251 3.51375 11.8276 3.51375Z" fill="#2F2C8F" stroke="#2F2C8F" stroke-width="0.5"/>
<path d="M7.11748 4.60498C7.18498 4.72123 7.30873 4.78498 7.43248 4.78498C7.49248 4.78498 7.55623 4.76998 7.61248 4.73623C7.78498 4.63498 7.84498 4.41373 7.74748 4.24123L6.35248 1.82623C6.25123 1.65373 6.02998 1.59373 5.85748 1.69123C5.68498 1.79248 5.62498 2.01373 5.72248 2.18998L7.11748 4.60498Z" fill="#2F2C8F" stroke="#2F2C8F" stroke-width="0.5"/>
<path d="M1.6651 6.64124L4.0801 8.03624C4.13635 8.06999 4.2001 8.08499 4.2601 8.08499C4.3876 8.08499 4.5076 8.02124 4.5751 7.90499C4.67635 7.73249 4.61635 7.50749 4.4401 7.40999L2.0251 6.015C1.8526 5.91375 1.6276 5.97374 1.5301 6.14999C1.4326 6.31499 1.4926 6.53999 1.6651 6.64124Z" fill="#2F2C8F" stroke="#2F2C8F" stroke-width="0.5"/>
<path d="M3.52922 12.1612C3.52922 11.9587 3.36797 11.7975 3.16547 11.7975H0.375469C0.172969 11.7975 0.0117188 11.9587 0.0117188 12.1612C0.0117188 12.3637 0.172969 12.525 0.375469 12.525H3.16172C3.36422 12.5212 3.52922 12.36 3.52922 12.1612Z" fill="#2F2C8F" stroke="#2F2C8F" stroke-width="0.5"/>
<path d="M4.25295 16.2412L1.83795 17.6324C1.66545 17.7337 1.60545 17.9549 1.70295 18.1274C1.77045 18.2437 1.8942 18.3074 2.01795 18.3074C2.07795 18.3074 2.1417 18.2924 2.19795 18.2587L4.61295 16.8637C4.78545 16.7624 4.84545 16.5412 4.74795 16.3687C4.65045 16.1962 4.42545 16.1399 4.25295 16.2412Z" fill="#2F2C8F" stroke="#2F2C8F" stroke-width="0.5"/>
<path d="M22.3352 17.3363L19.9202 15.9413C19.7477 15.84 19.5227 15.9 19.4252 16.0763C19.3239 16.2488 19.3839 16.4738 19.5602 16.5713L21.9752 17.9663C22.0314 18 22.0952 18.015 22.1552 18.015C22.2827 18.015 22.4027 17.9513 22.4702 17.835C22.5677 17.6588 22.5077 17.4338 22.3352 17.3363Z" fill="#2F2C8F" stroke="#2F2C8F" stroke-width="0.5"/>
<path d="M23.6256 11.4525H20.8393C20.6368 11.4525 20.4756 11.6138 20.4756 11.8163C20.4756 12.0188 20.6368 12.18 20.8393 12.18H23.6256C23.8281 12.18 23.9893 12.0188 23.9893 11.8163C23.9893 11.6138 23.8243 11.4525 23.6256 11.4525Z" fill="#2F2C8F" stroke="#2F2C8F" stroke-width="0.5"/>
<path d="M19.7478 7.73625L22.1628 6.34125C22.3353 6.24 22.3953 6.01875 22.2978 5.84625C22.1965 5.67375 21.9753 5.61375 21.8028 5.71125L19.3878 7.10625C19.2153 7.2075 19.1553 7.42875 19.2528 7.60125C19.3203 7.7175 19.444 7.78125 19.5678 7.78125C19.6278 7.785 19.6915 7.77 19.7478 7.73625Z" fill="#2F2C8F" stroke="#2F2C8F" stroke-width="0.5"/>
<path d="M16.0878 4.56369C16.144 4.59744 16.2078 4.61244 16.2678 4.61244C16.3953 4.61244 16.5153 4.54869 16.5828 4.43244L17.9778 2.01744C18.079 1.84494 18.019 1.61994 17.8428 1.52244C17.6703 1.42119 17.4453 1.48119 17.3478 1.65744L15.9528 4.07244C15.8553 4.24119 15.9115 4.46244 16.0878 4.56369Z" fill="#2F2C8F" stroke="#2F2C8F" stroke-width="0.5"/>
</g>
<defs>
<clipPath id="clip0_356_244">
<rect width="24" height="24" fill="white"/>
</clipPath>
</defs>
</svg>
