<svg width="23" height="23" viewBox="0 0 23 23" fill="none" xmlns="http://www.w3.org/2000/svg">
<path d="M21 4.5H16V3C16 1.6215 14.8785 0.5 13.5 0.5H9.5C8.1215 0.5 7 1.6215 7 3V4.5H2C1.173 4.5 0.5 5.173 0.5 6V10C0.5 10.6775 0.6965 11.3085 1.0315 11.845C1.015 11.8945 1 11.945 1 12V20C1 21.3785 2.1215 22.5 3.5 22.5H19.5C20.8785 22.5 22 21.3785 22 20V12C22 11.945 21.985 11.8945 21.9685 11.845C22.3035 11.3085 22.5 10.6775 22.5 10V6C22.5 5.173 21.827 4.5 21 4.5ZM8 3C8 2.173 8.673 1.5 9.5 1.5H13.5C14.327 1.5 15 2.173 15 3V4.5H8V3ZM21 20C21 20.827 20.327 21.5 19.5 21.5H3.5C2.673 21.5 2 20.827 2 20V12.868C2.5675 13.265 3.2565 13.5 4 13.5H8.5V15C8.5 15.276 8.724 15.5 9 15.5H14C14.2765 15.5 14.5 15.276 14.5 15V13.5H19C19.7435 13.5 20.4325 13.265 21 12.868V20ZM9.5 14.5V13.5H13.5V14.5H9.5ZM21.5 10C21.5 11.3785 20.3785 12.5 19 12.5C19 12.5 6.491 12.501 4 12.5C2.6215 12.5 1.5 11.3785 1.5 10V6C1.5 5.7245 1.7245 5.5 2 5.5H21C21.276 5.5 21.5 5.7245 21.5 6V10Z" fill="#2F2C8F" stroke="#2F2C8F"/>
</svg>
