<svg width="24" height="24" viewBox="0 0 24 24" fill="none" xmlns="http://www.w3.org/2000/svg">
<g clip-path="url(#clip0_356_235)">
<path d="M21.0283 4.10244C21.0055 4.06732 20.977 4.03627 20.944 4.01057C19.8203 2.74821 18.4422 1.73794 16.9002 1.04614C15.3583 0.354353 13.6874 -0.0032959 11.9974 -0.0032959C10.3074 -0.0032959 8.63648 0.354353 7.09453 1.04614C5.55259 1.73794 4.17449 2.74821 3.05083 4.01057C3.01942 4.03545 2.9922 4.0652 2.9702 4.09869V4.10807C1.45324 5.8434 0.468145 7.9789 0.132674 10.2593C-0.202797 12.5396 0.125556 14.8683 1.07848 16.967C2.0314 19.0657 3.56857 20.8456 5.50621 22.0938C7.44386 23.342 9.69999 24.0058 12.0049 24.0058C14.3098 24.0058 16.5659 23.342 18.5036 22.0938C20.4412 20.8456 21.9784 19.0657 22.9313 16.967C23.8842 14.8683 24.2126 12.5396 23.8771 10.2593C23.5416 7.9789 22.5565 5.8434 21.0396 4.10807L21.0283 4.10244ZM20.6533 19.1793C19.8014 18.682 18.8971 18.2802 17.9571 17.9812C18.54 16.1686 18.8478 14.2788 18.8702 12.3749H23.2408C23.1608 14.8686 22.2501 17.2641 20.6533 19.1812V19.1793ZM0.759578 12.3749H5.1302C5.15237 14.2795 5.46017 16.1699 6.04333 17.9831C5.10326 18.2821 4.19904 18.6839 3.34708 19.1812C1.75028 17.2641 0.839589 14.8686 0.759578 12.3749ZM3.3752 4.79057C4.22297 5.28333 5.12206 5.68195 6.05645 5.97932C5.46479 7.80372 5.15251 9.70713 5.1302 11.6249H0.759578C0.841294 9.11814 1.7624 6.71139 3.3752 4.79057ZM12.3752 6.86994C14.0223 6.8466 15.66 6.61732 17.2502 6.18744C17.8115 7.94622 18.1072 9.77889 18.1277 11.6249H12.3752V6.86994ZM12.3752 6.11994V0.772441C14.2765 0.984316 15.9377 2.79557 16.9877 5.48057C15.4822 5.88177 13.9331 6.0965 12.3752 6.11994ZM11.6252 6.11994C10.0673 6.09652 8.51822 5.88179 7.0127 5.48057C8.0627 2.79557 9.72395 0.984316 11.6252 0.772441V6.11994ZM11.6252 6.86994V11.6249H5.8802C5.89825 9.77927 6.19148 7.94661 6.7502 6.18744C8.34039 6.6173 9.9781 6.84658 11.6252 6.86994ZM5.8802 12.3749H11.6252V17.0887C9.97794 17.1132 8.34021 17.3437 6.7502 17.7749C6.19557 16.0277 5.9024 14.208 5.8802 12.3749ZM11.6252 17.8387V23.2274C9.71645 23.0137 8.0402 21.1874 6.9977 18.4818C8.5079 18.078 10.0621 17.862 11.6252 17.8387ZM12.3752 17.8387C13.9383 17.862 15.4925 18.0781 17.0027 18.4818C15.9602 21.1874 14.284 23.0137 12.3752 23.2274V17.8387ZM12.3752 17.0887V12.3749H18.1202C18.0978 14.2074 17.8046 16.0264 17.2502 17.7731C15.6601 17.3425 14.0224 17.1126 12.3752 17.0887ZM18.8702 11.6249C18.8479 9.70713 18.5356 7.80372 17.944 5.97932C18.8783 5.68195 19.7774 5.28333 20.6252 4.79057C22.238 6.71139 23.1591 9.11814 23.2408 11.6249H18.8702ZM20.1171 4.22244C19.3465 4.65472 18.5334 5.00657 17.6908 5.27244C16.999 3.49494 16.039 2.06244 14.914 1.13432C16.8978 1.66923 18.6973 2.73723 20.1171 4.22244ZM9.08645 1.13432C7.96145 2.05682 7.00333 3.49307 6.31145 5.27244C5.46884 5.00657 4.65581 4.65472 3.8852 4.22244C5.30451 2.73753 7.10329 1.66954 9.08645 1.13432ZM3.85708 19.7512C4.63065 19.314 5.44753 18.9584 6.29458 18.6899C6.98833 20.4862 7.95208 21.9374 9.08458 22.8656C7.08908 22.3273 5.28041 21.2498 3.85708 19.7512ZM14.9196 22.8656C16.0446 21.9281 17.0158 20.4862 17.7096 18.6899C18.5566 18.9584 19.3735 19.314 20.1471 19.7512C18.7222 21.2507 16.9115 22.3283 14.914 22.8656H14.9196Z" fill="#2F2C8F" stroke="#2F2C8F" stroke-width="0.5"/>
</g>
<defs>
<clipPath id="clip0_356_235">
<rect width="24" height="24" fill="white"/>
</clipPath>
</defs>
</svg>
