<svg width="20" height="20" viewBox="0 0 20 20" fill="none" xmlns="http://www.w3.org/2000/svg">
<path d="M8.33366 18.3333V5.83333C8.33366 5.3731 7.96056 5 7.50033 5H3.33366C2.41318 5 1.66699 5.74619 1.66699 6.66667V16.6667C1.66699 17.5871 2.41318 18.3333 3.33366 18.3333H13.3337C14.2541 18.3333 15.0003 17.5871 15.0003 16.6667V12.5C15.0003 12.0398 14.6272 11.6667 14.167 11.6667H1.66699" stroke="#2F2C8F" stroke-width="1.66667" stroke-linecap="round" stroke-linejoin="round"/>
<path d="M12.5003 1.6665H17.5003C17.9606 1.6665 18.3337 2.0396 18.3337 2.49984V7.49984C18.3337 7.96007 17.9606 8.33317 17.5003 8.33317H12.5003C12.0401 8.33317 11.667 7.96007 11.667 7.49984V2.49984C11.667 2.0396 12.0401 1.6665 12.5003 1.6665V1.6665" stroke="#2F2C8F" stroke-width="1.66667" stroke-linecap="round" stroke-linejoin="round"/>
</svg>
