<svg width="20" height="20" viewBox="0 0 20 20" fill="none" xmlns="http://www.w3.org/2000/svg">
<path d="M16.6663 10.8335C16.6663 15.0002 13.7497 17.0835 10.283 18.2919C10.1015 18.3534 9.90429 18.3504 9.72467 18.2835C6.24967 17.0835 3.33301 15.0002 3.33301 10.8335V5.00021C3.33301 4.53997 3.7061 4.16688 4.16634 4.16688C5.83301 4.16688 7.91634 3.16688 9.36634 1.90021C9.73107 1.5886 10.2683 1.5886 10.633 1.90021C12.0913 3.17521 14.1663 4.16688 15.833 4.16688C16.2932 4.16688 16.6663 4.53997 16.6663 5.00021V10.8335" stroke="#2F2C8F" stroke-width="1.66667" stroke-linecap="round" stroke-linejoin="round"/>
<path d="M7.5 10.0002L9.16667 11.6668L12.5 8.3335" stroke="#2F2C8F" stroke-width="1.66667" stroke-linecap="round" stroke-linejoin="round"/>
</svg>
