<svg width="24" height="24" viewBox="0 0 24 24" fill="none" xmlns="http://www.w3.org/2000/svg">
<path d="M3.99951 13.9997C3.61326 14.001 3.26079 13.7798 3.09406 13.4314C2.92734 13.0829 2.97617 12.6697 3.21951 12.3697L13.1195 2.1697C13.2725 1.99315 13.5273 1.94603 13.7332 2.0562C13.9392 2.16637 14.0415 2.40448 13.9795 2.6297L12.0595 8.6497C11.9446 8.95727 11.988 9.30167 12.1756 9.57112C12.3632 9.84058 12.6712 10.0008 12.9995 9.9997H19.9995C20.3858 9.99838 20.7382 10.2196 20.905 10.568C21.0717 10.9165 21.0229 11.3297 20.7795 11.6297L10.8795 21.8297C10.7266 22.0062 10.4718 22.0534 10.2658 21.9432C10.0598 21.833 9.95756 21.5949 10.0195 21.3697L11.9395 15.3497C12.0544 15.0421 12.011 14.6977 11.8234 14.4283C11.6358 14.1588 11.3279 13.9986 10.9995 13.9997H3.99951" stroke="#2F2C8F" stroke-width="2" stroke-linecap="round" stroke-linejoin="round"/>
</svg>
