<svg width="20" height="20" viewBox="0 0 20 20" fill="none" xmlns="http://www.w3.org/2000/svg">
<path d="M10.0003 16.6665V18.3332M10.0003 1.6665V3.33317M14.167 16.6665V18.3332M14.167 1.6665V3.33317M1.66699 9.99984H3.33366M1.66699 14.1665H3.33366M1.66699 5.83317H3.33366M16.667 9.99984H18.3337M16.667 14.1665H18.3337M16.667 5.83317H18.3337M5.83366 16.6665V18.3332M5.83366 1.6665V3.33317" stroke="#2F2C8F" stroke-width="1.66667" stroke-linecap="round" stroke-linejoin="round"/>
<path d="M4.99967 3.3335H14.9997C15.9201 3.3335 16.6663 4.07969 16.6663 5.00016V15.0002C16.6663 15.9206 15.9201 16.6668 14.9997 16.6668H4.99967C4.0792 16.6668 3.33301 15.9206 3.33301 15.0002V5.00016C3.33301 4.07969 4.0792 3.3335 4.99967 3.3335V3.3335" stroke="#2F2C8F" stroke-width="1.66667" stroke-linecap="round" stroke-linejoin="round"/>
<path d="M7.50033 6.6665H12.5003C12.9606 6.6665 13.3337 7.0396 13.3337 7.49984V12.4998C13.3337 12.9601 12.9606 13.3332 12.5003 13.3332H7.50033C7.04009 13.3332 6.66699 12.9601 6.66699 12.4998V7.49984C6.66699 7.0396 7.04009 6.6665 7.50033 6.6665V6.6665" stroke="#2F2C8F" stroke-width="1.66667" stroke-linecap="round" stroke-linejoin="round"/>
</svg>
