<svg width="24" height="24" viewBox="0 0 24 24" fill="none" xmlns="http://www.w3.org/2000/svg">
<path d="M2 12C2 17.5192 6.48085 22 12 22C17.5192 22 22 17.5192 22 12C22 6.48085 17.5192 2 12 2C6.48085 2 2 6.48085 2 12V12" stroke="#2F2C8F" stroke-width="2" stroke-linecap="round" stroke-linejoin="round"/>
<path d="M6 12C6 15.3115 8.68851 18 12 18C15.3115 18 18 15.3115 18 12C18 8.68851 15.3115 6 12 6C8.68851 6 6 8.68851 6 12H6" stroke="#2F2C8F" stroke-width="2" stroke-linecap="round" stroke-linejoin="round"/>
<path d="M10 12C10 13.1038 10.8962 14 12 14C13.1038 14 14 13.1038 14 12C14 10.8962 13.1038 10 12 10C10.8962 10 10 10.8962 10 12V12" stroke="#2F2C8F" stroke-width="2" stroke-linecap="round" stroke-linejoin="round"/>
</svg>
