<svg width="24" height="24" viewBox="0 0 24 24" fill="none" xmlns="http://www.w3.org/2000/svg">
<path d="M15 5C15 6.65575 16.3443 8 18 8C19.6557 8 21 6.65575 21 5C21 3.34425 19.6557 2 18 2C16.3443 2 15 3.34425 15 5V5" stroke="#2F2C8F" stroke-width="2" stroke-linecap="round" stroke-linejoin="round"/>
<path d="M3 12C3 13.6557 4.34425 15 6 15C7.65575 15 9 13.6557 9 12C9 10.3443 7.65575 9 6 9C4.34425 9 3 10.3443 3 12H3" stroke="#2F2C8F" stroke-width="2" stroke-linecap="round" stroke-linejoin="round"/>
<path d="M15 19C15 20.6557 16.3443 22 18 22C19.6557 22 21 20.6557 21 19C21 17.3443 19.6557 16 18 16C16.3443 16 15 17.3443 15 19V19" stroke="#2F2C8F" stroke-width="2" stroke-linecap="round" stroke-linejoin="round"/>
<path d="M8.58984 13.5098L15.4198 17.4898M15.4098 6.50977L8.58984 10.4898" stroke="#2F2C8F" stroke-width="2" stroke-linecap="round" stroke-linejoin="round"/>
</svg>
