<svg width="24" height="24" viewBox="0 0 24 24" fill="none" xmlns="http://www.w3.org/2000/svg">
<path d="M11.5249 2.29489C11.6143 2.11429 11.7983 2 11.9999 2C12.2014 2 12.3855 2.11429 12.4749 2.29489L14.7849 6.97389C15.0934 7.59938 15.6898 8.03312 16.3799 8.13389L21.5459 8.88989C21.7455 8.91882 21.9115 9.05863 21.9739 9.2505C22.0363 9.44238 21.9843 9.65304 21.8399 9.79389L18.1039 13.4319C17.6033 13.919 17.3747 14.6215 17.4929 15.3099L18.3749 20.4499C18.4101 20.6495 18.3284 20.8518 18.1644 20.9709C18.0004 21.09 17.7828 21.1052 17.6039 21.0099L12.9859 18.5819C12.3683 18.2572 11.6305 18.2572 11.0129 18.5819L6.39586 21.0099C6.217 21.1046 5.99983 21.0891 5.83616 20.9701C5.67249 20.8511 5.59089 20.6492 5.62586 20.4499L6.50686 15.3109C6.62536 14.6221 6.39679 13.9192 5.89586 13.4319L2.15986 9.79489C2.01417 9.65418 1.96142 9.44274 2.02394 9.25008C2.08646 9.05743 2.25331 8.91725 2.45386 8.88889L7.61886 8.13389C8.30971 8.03374 8.90698 7.59991 9.21586 6.97389L11.5249 2.29489" stroke="#2F2C8F" stroke-width="2" stroke-linecap="round" stroke-linejoin="round"/>
</svg>
