<svg width="20" height="20" viewBox="0 0 20 20" fill="none" xmlns="http://www.w3.org/2000/svg">
<path d="M13.3334 8.33332C13.3334 10.173 11.8398 11.6667 10.0001 11.6667C8.16039 11.6667 6.66677 10.173 6.66677 8.33332M2.58594 5.02832H17.4143" stroke="#2F2C8F" stroke-width="1.66667" stroke-linecap="round" stroke-linejoin="round"/>
<path d="M2.83333 4.55616C2.61696 4.84465 2.5 5.19554 2.5 5.55616V16.667C2.5 17.5875 3.24619 18.3337 4.16667 18.3337H15.8333C16.7538 18.3337 17.5 17.5875 17.5 16.667V5.55616C17.5 5.19554 17.383 4.84465 17.1667 4.55616L15.5 2.33366C15.1852 1.91398 14.6913 1.66699 14.1667 1.66699H5.83333C5.30874 1.66699 4.81476 1.91398 4.5 2.33366L2.83333 4.55616" stroke="#2F2C8F" stroke-width="1.66667" stroke-linecap="round" stroke-linejoin="round"/>
</svg>
