<svg width="20" height="20" viewBox="0 0 20 20" fill="none" xmlns="http://www.w3.org/2000/svg">
<path d="M2.5 9.16797H5C5.92047 9.16797 6.66667 9.91416 6.66667 10.8346V13.3346C6.66667 14.2551 5.92047 15.0013 5 15.0013H4.16667C3.24619 15.0013 2.5 14.2551 2.5 13.3346V9.16797M2.5 9.16797C2.5 5.02861 5.86064 1.66797 10 1.66797C14.1394 1.66797 17.5 5.02861 17.5 9.16797M17.5 9.16797V13.3346C17.5 14.2551 16.7538 15.0013 15.8333 15.0013H15C14.0795 15.0013 13.3333 14.2551 13.3333 13.3346V10.8346C13.3333 9.91416 14.0795 9.16797 15 9.16797H2.5" stroke="#2F2C8F" stroke-width="1.66667" stroke-linecap="round" stroke-linejoin="round"/>
<path d="M17.5 13.334V15.0007C17.5 16.8416 16.0076 18.334 14.1667 18.334H10" stroke="#2F2C8F" stroke-width="1.66667" stroke-linecap="round" stroke-linejoin="round"/>
</svg>
