<svg width="20" height="20" viewBox="0 0 20 20" fill="none" xmlns="http://www.w3.org/2000/svg">
<path d="M10.0002 12.5007V16.6673C11.2085 17.4757 12.5252 16.209 13.3335 15.0007C14.2335 13.6507 13.3335 10.834 13.3335 10.834M3.75016 13.7507C2.50016 14.8007 2.0835 17.9173 2.0835 17.9173C2.0835 17.9173 5.20016 17.5007 6.25016 16.2507C6.84183 15.5507 6.8335 14.4757 6.17516 13.8257C5.50442 13.1855 4.45919 13.1531 3.75016 13.7507" stroke="#2F2C8F" stroke-width="1.66667" stroke-linecap="round" stroke-linejoin="round"/>
<path d="M7.5 9.99956C7.94345 8.84908 8.50184 7.74628 9.16667 6.70789C11.141 3.55119 14.6102 1.64313 18.3333 1.66622C18.3333 3.93289 17.6833 7.91622 13.3333 10.8329C12.2806 11.4982 11.1639 12.0566 10 12.4996L7.5 9.99956" stroke="#2F2C8F" stroke-width="1.66667" stroke-linecap="round" stroke-linejoin="round"/>
<path d="M7.50016 10.0002H3.3335C4.14183 11.2085 3.79183 7.47515 5.00016 6.66682C6.35016 5.76682 9.16683 6.70849 9.16683 6.70849" stroke="#2F2C8F" stroke-width="1.66667" stroke-linecap="round" stroke-linejoin="round"/>
</svg>
