<svg width="20" height="20" viewBox="0 0 20 20" fill="none" xmlns="http://www.w3.org/2000/svg">
<path d="M16.6668 10.8331C16.6668 14.9997 13.7502 17.0831 10.2835 18.2914C10.102 18.3529 9.90478 18.35 9.72516 18.2831C6.25016 17.0831 3.3335 14.9997 3.3335 10.8331V4.99972C3.3335 4.53949 3.70659 4.16639 4.16683 4.16639C5.8335 4.16639 7.91683 3.16639 9.36683 1.89972C9.73156 1.58811 10.2688 1.58811 10.6335 1.89972C12.0918 3.17472 14.1668 4.16639 15.8335 4.16639C16.2937 4.16639 16.6668 4.53949 16.6668 4.99972V10.8331" stroke="#2F2C8F" stroke-width="1.66667" stroke-linecap="round" stroke-linejoin="round"/>
<path d="M7.5 9.9987L9.16667 11.6654L12.5 8.33203" stroke="#2F2C8F" stroke-width="1.66667" stroke-linecap="round" stroke-linejoin="round"/>
</svg>
