<svg width="20" height="20" viewBox="0 0 20 20" fill="none" xmlns="http://www.w3.org/2000/svg">
<path d="M12.5002 17.5003V13.3337C12.5002 12.8734 12.1271 12.5003 11.6669 12.5003H8.33352C7.87329 12.5003 7.50019 12.8734 7.50019 13.3337V17.5003M14.8119 8.59199C14.4509 8.24648 13.8819 8.24648 13.521 8.59199C12.7161 9.35972 11.4501 9.35972 10.6452 8.59199C10.2844 8.24702 9.716 8.24702 9.35519 8.59199C8.55018 9.36025 7.28353 9.36025 6.47852 8.59199C6.1176 8.24648 5.54861 8.24648 5.18769 8.59199C4.41219 9.33202 3.20171 9.3628 2.38961 8.66314C1.57751 7.96348 1.42887 6.76177 2.04602 5.88533L4.45352 2.39866C4.76369 1.94097 5.28064 1.66689 5.83352 1.66699H14.1669C14.7181 1.66678 15.2337 1.93912 15.5444 2.39449L17.9569 5.88783C18.5742 6.765 18.4246 7.96754 17.6112 8.66673C16.7977 9.36593 15.5864 9.33322 14.8119 8.59116" stroke="#2F2C8F" stroke-width="1.66667" stroke-linecap="round" stroke-linejoin="round"/>
<path d="M3.3335 9.125V15.8333C3.3335 16.7538 4.07969 17.5 5.00016 17.5H15.0002C15.9206 17.5 16.6668 16.7538 16.6668 15.8333V9.125" stroke="#2F2C8F" stroke-width="1.66667" stroke-linecap="round" stroke-linejoin="round"/>
</svg>
