<svg width="99" height="103" viewBox="0 0 99 103" fill="none" xmlns="http://www.w3.org/2000/svg">
<g opacity="0.1">
<path d="M32.6906 26.7959C33.3468 26.8151 34.0031 26.8336 34.6593 26.8516C36.4299 26.9019 38.2001 26.9604 39.9704 27.0205C41.8246 27.082 43.6789 27.1358 45.5333 27.1905C49.0399 27.295 52.5462 27.4063 56.0525 27.5201C60.0463 27.6495 64.0404 27.7711 68.0345 27.8922C76.2462 28.1412 84.4575 28.3997 92.6687 28.6646C92.5047 29.5781 92.3397 30.4913 92.1744 31.4045C92.0826 31.9131 91.9909 32.4216 91.8963 32.9456C91.4919 35.0584 90.9748 37.1343 90.439 39.2169C89.5339 42.8063 88.6639 46.4012 87.8393 50.01C87.6828 50.6943 87.6828 50.6943 87.5232 51.3924C87.1913 52.8466 86.8603 54.301 86.5294 55.7554C85.0447 62.2783 83.5491 68.7966 81.9474 75.2919C79.7655 84.1406 77.7231 93.023 75.8209 101.936C71.6941 101.818 67.5672 101.7 63.3153 101.578C63.6041 100.185 63.8929 98.7921 64.1904 97.3568C64.2753 96.9435 64.3601 96.5302 64.4475 96.1044C65.1927 92.5491 66.0393 89.0197 66.8861 85.4875C67.6991 82.0943 68.4989 78.6983 69.2899 75.2998C69.4041 74.8095 69.5183 74.3191 69.6359 73.8139C69.8694 72.811 70.1028 71.8081 70.3362 70.8053C73.8933 55.5242 73.8933 55.5242 75.6775 48.3729C76.1919 46.3053 76.6791 44.2371 77.1162 42.1517C77.2525 41.5031 77.2525 41.5031 77.3914 40.8415C77.4595 40.516 77.5275 40.1905 77.5976 39.8551C71.2609 39.6904 64.9239 39.536 58.5866 39.3932C55.6438 39.3266 52.7011 39.2568 49.7585 39.1795C46.9174 39.105 44.0761 39.0391 41.2346 38.9791C40.152 38.9547 39.0695 38.9273 37.987 38.8967C36.4677 38.8542 34.9485 38.8229 33.4289 38.794C32.9841 38.779 32.5392 38.7641 32.0808 38.7486C28.5528 38.7 25.7262 39.3558 23.0657 41.7586C21.1968 44.4459 20.3677 47.4471 19.5898 50.5868C19.498 50.9486 19.4062 51.3103 19.3116 51.6831C19.0171 52.8466 18.7261 54.0111 18.4353 55.1755C18.2333 55.9763 18.0312 56.7771 17.8288 57.5778C17.2494 59.8735 16.6747 62.1703 16.102 64.4677C16.025 64.7764 15.948 65.0852 15.8687 65.4034C15.1701 68.2072 14.4756 71.012 13.7915 73.8193C13.6403 74.4175 13.4786 75.0131 13.309 75.6064C12.3728 79.0126 12.856 81.7871 14.4954 84.8541C17.5664 88.1061 21.228 88.5937 25.4949 88.7484C26.2117 88.7673 26.9286 88.7861 27.6455 88.8046C28.39 88.8318 29.1344 88.8599 29.8788 88.889C31.824 88.9624 33.7695 89.0227 35.7152 89.0802C37.7063 89.1413 39.6969 89.2151 41.6875 89.2877C45.5831 89.4279 49.4789 89.5543 53.3752 89.6719C53.236 90.2073 53.0968 90.7426 52.9534 91.2941C52.7692 92.0106 52.5852 92.727 52.4012 93.4435C52.3096 93.7946 52.218 94.1458 52.1237 94.5076C51.5535 96.7377 51.1244 98.9398 50.8097 101.22C46.5336 101.14 42.2579 101.049 37.9823 100.946C35.9965 100.898 34.0107 100.854 32.0246 100.818C30.104 100.782 28.1839 100.738 26.2636 100.687C25.535 100.67 24.8062 100.655 24.0774 100.644C16.6887 100.527 11.2886 98.8014 5.96856 93.4835C2.12141 89.1602 0.460689 83.9739 0.622165 78.2053C1.0807 71.6744 3.16701 65.2268 4.84229 58.9267C5.27245 57.3015 5.69196 55.6736 6.11244 54.0459C11.1592 34.5923 11.1592 34.5923 17.9508 30.0673C22.9595 27.2229 26.9619 26.5854 32.6906 26.7959Z" fill="white"/>
<path d="M29.5261 61.5033C39.3517 61.7845 49.1772 62.0657 59.3006 62.3554C58.6375 66.1555 57.9601 69.9054 57.1407 73.6592C56.9911 74.3507 56.9911 74.3507 56.8385 75.0561C56.6303 76.017 56.4215 76.9779 56.2122 77.9385C55.8914 79.4114 55.5727 80.8849 55.2543 82.3584C55.0506 83.2972 54.8468 84.236 54.6429 85.1748C54.5479 85.6142 54.4528 86.0535 54.3549 86.5062C54.266 86.9132 53.2818 89.9586 53.2818 89.9586C53.2818 89.9586 53.3652 89.4712 53.2852 89.839C53.0586 90.7899 53.7734 88.3208 53.2852 89.839C49.3257 89.7257 45.1367 89.6058 41.0571 89.4891C41.455 86.0587 41.9848 84.3486 42.7547 81.0341C42.8453 80.6298 42.936 80.2255 43.0295 79.809C43.6993 76.8673 43.6993 76.8673 44.2412 75.714C38.5218 75.5503 32.8025 75.3866 26.9098 75.218C27.5723 69.506 27.5723 69.506 28.259 66.9254C28.7346 65.1165 29.1503 63.3471 29.5261 61.5033Z" fill="white"/>
<path d="M93.7607 3.24518C96.0751 4.74432 97.9737 6.85869 98.5792 9.61302C98.8162 12.3534 98.0669 14.4387 96.5881 16.7079C94.9789 18.3859 93.1078 19.6088 90.7754 19.8206C87.9858 19.7763 86.1288 19.7358 84.0442 17.6899C81.6556 15.0397 80.7859 13.0332 80.9495 9.47689C81.4446 6.85091 83.2518 5.32427 85.2276 3.67146C87.8412 1.96517 90.86 2.34662 93.7607 3.24518Z" fill="white"/>
</g>
</svg>
