<svg width="190" height="194" viewBox="0 0 190 194" fill="none" xmlns="http://www.w3.org/2000/svg">
<g opacity="0.1">
<path d="M84.37 53.32C85.2819 53.6917 86.1941 54.0626 87.1066 54.4327C89.5678 55.4337 92.0241 56.446 94.4797 57.4605C97.0524 58.5211 99.6294 59.5711 102.206 60.6222C107.078 62.6115 111.945 64.6102 116.812 66.6125C122.355 68.8926 127.903 71.1621 133.45 73.4308C144.857 78.0952 156.257 82.773 167.654 87.4595C166.944 88.6567 166.232 89.8531 165.52 91.0492C165.124 91.7155 164.728 92.3818 164.32 93.0684C162.642 95.8242 160.824 98.4691 158.977 101.114C155.82 105.681 152.709 110.275 149.654 114.911C149.074 115.791 149.074 115.791 148.483 116.688C147.253 118.556 146.024 120.426 144.795 122.295C139.281 130.68 133.755 139.052 128.092 147.336C120.377 158.622 112.841 170.028 105.485 181.551C99.749 179.217 94.0131 176.882 88.1033 174.477C89.241 172.672 90.3787 170.867 91.5508 169.006C91.8872 168.47 92.2235 167.934 92.57 167.382C95.4851 162.778 98.529 158.265 101.575 153.747C104.5 149.407 107.408 145.056 110.305 140.696C110.723 140.068 111.141 139.439 111.572 138.791C112.427 137.504 113.281 136.218 114.136 134.932C127.163 115.331 127.163 115.331 133.427 106.221C135.236 103.587 137.008 100.937 138.717 98.2367C139.25 97.3971 139.25 97.3971 139.793 96.5405C140.059 96.1189 140.326 95.6974 140.6 95.263C131.784 91.7021 122.962 88.1555 114.134 84.6252C110.034 82.9854 105.936 81.3412 101.843 79.6864C97.8903 78.0889 93.9331 76.5034 89.9725 74.9261C88.4643 74.3231 86.9578 73.7157 85.453 73.104C83.3408 72.2461 81.2229 71.4038 79.1031 70.5648C78.4859 70.31 77.8688 70.0552 77.2329 69.7927C72.3017 67.8707 67.986 67.3069 62.9856 69.2849C58.9478 72.0785 56.2061 75.8594 53.4635 79.8618C53.1445 80.3219 52.8254 80.7819 52.4966 81.256C51.4714 82.7359 50.4508 84.219 49.4304 85.7023C48.7259 86.7212 48.0211 87.74 47.316 88.7586C45.2958 91.6796 43.2816 94.6046 41.2699 97.5314C40.9995 97.9248 40.729 98.3182 40.4504 98.7235C37.9957 102.296 35.5463 105.871 33.11 109.456C32.5832 110.217 32.0431 110.969 31.4931 111.713C28.3881 116.007 27.6091 120.159 28.301 125.329C30.9069 131.512 35.795 134.121 41.7085 136.58C42.7057 136.984 43.703 137.386 44.7005 137.789C45.7322 138.219 46.7633 138.649 47.7938 139.081C50.4882 140.206 53.1898 141.313 55.8933 142.416C58.6585 143.548 61.4164 144.698 64.1751 145.846C69.5744 148.09 74.9815 150.314 80.3938 152.527C79.917 153.206 79.4401 153.885 78.9488 154.584C78.3136 155.494 77.6786 156.404 77.0437 157.314C76.7305 157.759 76.4173 158.204 76.0947 158.663C74.1219 161.497 72.3619 164.365 70.7216 167.404C64.7563 165.044 58.7968 162.67 52.8439 160.278C50.0789 159.168 47.3121 158.063 44.5409 156.968C41.8612 155.909 39.1868 154.838 36.5154 153.758C35.5009 153.35 34.4847 152.947 33.4666 152.549C23.1472 148.502 16.4673 143.24 11.787 132.973C8.65353 124.878 9.04533 116.719 12.3032 108.699C16.379 99.764 22.6979 91.8015 28.3619 83.8304C29.8202 81.773 31.2649 79.7063 32.7109 77.6404C50.0228 52.9605 50.0228 52.9605 61.9424 50.1715C70.4739 48.8069 76.432 50.0142 84.37 53.32Z" fill="white"/>
<path d="M61.6856 100.419C75.3423 105.977 88.999 111.535 103.07 117.261C100.141 122.251 97.2192 127.164 94.0957 132.007C93.5222 132.9 93.5222 132.9 92.9372 133.811C92.1397 135.052 91.3416 136.292 90.5427 137.532C89.3181 139.433 88.0961 141.335 86.8745 143.238C86.0951 144.45 85.3155 145.662 84.5358 146.874C84.1714 147.441 83.807 148.009 83.4316 148.593C83.0928 149.118 80.11 152.88 80.11 152.88C80.11 152.88 80.4832 152.239 80.1776 152.714C79.3595 153.931 81.6612 150.837 80.1776 152.714C74.6741 150.474 68.8517 148.105 63.1815 145.797C65.543 141.187 67.1858 139.062 70.009 134.81C70.3488 134.29 70.6887 133.769 71.0388 133.233C73.5255 129.452 73.5255 129.452 74.8928 128.117C66.9434 124.881 58.994 121.646 50.8036 118.313C54.7358 110.636 54.7358 110.636 57.0564 107.371C58.675 105.08 60.1888 102.812 61.6856 100.419Z" fill="white"/>
<path d="M182.543 52.3194C185.007 55.6417 186.564 59.6099 185.967 63.7978C184.86 67.7725 182.712 70.3086 179.442 72.7197C176.299 74.2316 173.028 74.9667 169.64 74.0389C165.744 72.5108 163.156 71.4782 161.302 67.5084C159.339 62.53 159.171 59.254 161.27 54.3434C163.345 50.9142 166.686 49.7189 170.331 48.4349C174.899 47.4108 178.94 49.5329 182.543 52.3194Z" fill="white"/>
</g>
</svg>
