<svg width="20" height="20" viewBox="0 0 20 20" fill="none" xmlns="http://www.w3.org/2000/svg">
<path d="M2.5 9.16663H5C5.92047 9.16663 6.66667 9.91282 6.66667 10.8333V13.3333C6.66667 14.2538 5.92047 15 5 15H4.16667C3.24619 15 2.5 14.2538 2.5 13.3333V9.16663M2.5 9.16663C2.5 5.02726 5.86064 1.66663 10 1.66663C14.1394 1.66663 17.5 5.02726 17.5 9.16663M17.5 9.16663V13.3333C17.5 14.2538 16.7538 15 15.8333 15H15C14.0795 15 13.3333 14.2538 13.3333 13.3333V10.8333C13.3333 9.91282 14.0795 9.16663 15 9.16663H2.5" stroke="#2F2C8F" stroke-width="1.66667" stroke-linecap="round" stroke-linejoin="round"/>
<path d="M17.5 13.3333V14.9999C17.5 16.8409 16.0076 18.3333 14.1667 18.3333H10" stroke="#2F2C8F" stroke-width="1.66667" stroke-linecap="round" stroke-linejoin="round"/>
</svg>
