<svg width="20" height="20" viewBox="0 0 20 20" fill="none" xmlns="http://www.w3.org/2000/svg">
<path d="M2.47533 10.7667C1.97491 11.0673 1.66827 11.6079 1.66699 12.1917V14.8917C1.66827 15.4755 1.97491 16.016 2.47533 16.3167L4.97533 17.8167C5.50355 18.134 6.16377 18.134 6.69199 17.8167L10.0003 15.8333V11.25L5.83366 8.75L2.47533 10.7667M5.83366 13.75L1.88366 11.375M5.83366 13.75L10.0003 11.25M5.83366 13.75V18.0583M10.0003 11.25V15.8333L13.3087 17.8167C13.8369 18.134 14.4971 18.134 15.0253 17.8167L17.5253 16.3167C18.0257 16.016 18.3324 15.4755 18.3337 14.8917V12.1917C18.3324 11.6079 18.0257 11.0673 17.5253 10.7667L14.167 8.75L5.83366 13.75M10.0003 16.25L5.83366 13.75M10.0003 16.25L13.9503 13.875M14.167 13.75V18.0583" stroke="#2F2C8F" stroke-width="1.66667" stroke-linecap="round" stroke-linejoin="round"/>
<path d="M6.64134 3.68333C6.14092 3.98398 5.83429 4.52454 5.83301 5.10833V8.75L9.99967 11.25L14.1663 8.75V5.10833C14.1651 4.52454 13.8584 3.98398 13.358 3.68333L10.858 2.18333C10.3298 1.86597 9.66956 1.86597 9.14134 2.18333L6.64134 3.68333M9.99967 6.66666L6.04967 4.29166M9.99967 6.66666L13.9497 4.29166M9.99967 11.25V6.66666" stroke="#2F2C8F" stroke-width="1.66667" stroke-linecap="round" stroke-linejoin="round"/>
</svg>
