<svg width="20" height="20" viewBox="0 0 20 20" fill="none" xmlns="http://www.w3.org/2000/svg">
<path d="M12.5 5C8.35786 5 5 8.35786 5 12.5V2.5" stroke="#2F2C8F" stroke-width="1.66667" stroke-linecap="round" stroke-linejoin="round"/>
<path d="M12.5 5C12.5 6.37979 13.6202 7.5 15 7.5C16.3798 7.5 17.5 6.37979 17.5 5C17.5 3.62021 16.3798 2.5 15 2.5C13.6202 2.5 12.5 3.62021 12.5 5V5" stroke="#2F2C8F" stroke-width="1.66667" stroke-linecap="round" stroke-linejoin="round"/>
<path d="M2.5 15C2.5 16.3798 3.62021 17.5 5 17.5C6.37979 17.5 7.5 16.3798 7.5 15C7.5 13.6202 6.37979 12.5 5 12.5C3.62021 12.5 2.5 13.6202 2.5 15H2.5" stroke="#2F2C8F" stroke-width="1.66667" stroke-linecap="round" stroke-linejoin="round"/>
</svg>
