<svg width="24" height="24" viewBox="0 0 24 24" fill="none" xmlns="http://www.w3.org/2000/svg">
<path d="M16 20.9999V18.9999C16 16.7923 14.2077 14.9999 12 14.9999H6C3.79234 14.9999 2 16.7923 2 18.9999V20.9999M16 3.12793C17.7642 3.58529 18.9962 5.1774 18.9962 6.99993C18.9962 8.82246 17.7642 10.4146 16 10.8719M22 20.9999V18.9999C21.9986 17.177 20.765 15.5856 19 15.1299" stroke="#2F2C8F" stroke-width="2" stroke-linecap="round" stroke-linejoin="round"/>
<path d="M5 7C5 8.42906 5.7624 9.74957 7 10.4641C8.2376 11.1786 9.7624 11.1786 11 10.4641C12.2376 9.74957 13 8.42906 13 7C13 4.79234 11.2077 3 9 3C6.79234 3 5 4.79234 5 7H5" stroke="#2F2C8F" stroke-width="2" stroke-linecap="round" stroke-linejoin="round"/>
</svg>
