<svg width="24" height="24" viewBox="0 0 24 24" fill="none" xmlns="http://www.w3.org/2000/svg">
<path d="M14.0002 4.1002L12.0002 6.0002M5.1002 8.0002L2.2002 7.2002M6.0002 12.0002L4.1002 14.0002M7.2002 2.2002L8.0002 5.1002M9.0372 9.6902C8.95787 9.50333 8.99992 9.28701 9.14346 9.14346C9.28701 8.99992 9.50333 8.95787 9.6902 9.0372L20.6902 13.5372C20.8911 13.6196 21.0158 13.8222 20.9989 14.0387C20.982 14.2551 20.8274 14.4359 20.6162 14.4862L16.2672 15.5272C15.9011 15.6146 15.6151 15.9002 15.5272 16.2662L14.4872 20.6162C14.4375 20.8281 14.2563 20.9836 14.0392 21.0005C13.8222 21.0174 13.6191 20.8919 13.5372 20.6902L14.0002 4.1002" stroke="#2F2C8F" stroke-width="2" stroke-linecap="round" stroke-linejoin="round"/>
</svg>
