<svg width="24" height="24" viewBox="0 0 24 24" fill="none" xmlns="http://www.w3.org/2000/svg">
<path d="M12 15V20C13.45 20.97 15.03 19.45 16 18C17.08 16.38 16 13 16 13M4.5 16.5C3 17.76 2.5 21.5 2.5 21.5C2.5 21.5 6.24 21 7.5 19.5C8.21 18.66 8.2 17.37 7.41 16.59C6.60511 15.8218 5.35083 15.783 4.5 16.5" stroke="#2F2C8F" stroke-width="2" stroke-linecap="round" stroke-linejoin="round"/>
<path d="M9 11.9998C9.53214 10.6192 10.2022 9.29582 11 8.04976C13.3692 4.26172 17.5322 1.97205 22 1.99976C22 4.71976 21.22 9.49976 16 12.9998C14.7367 13.7982 13.3967 14.4682 12 14.9998L9 11.9998" stroke="#2F2C8F" stroke-width="2" stroke-linecap="round" stroke-linejoin="round"/>
<path d="M9 12.0001H4C4.97 13.4501 4.55 8.97009 6 8.00009C7.62 6.92009 11 8.05009 11 8.05009" stroke="#2F2C8F" stroke-width="2" stroke-linecap="round" stroke-linejoin="round"/>
</svg>
