<svg width="24" height="24" viewBox="0 0 24 24" fill="none" xmlns="http://www.w3.org/2000/svg">
<path d="M18 8V6C18 4.89617 17.1038 4 16 4H4C2.89617 4 2 4.89617 2 6V13C2 14.1038 2.89617 15 4 15H12M10 19V15.04V18.19M7 19H12" stroke="#2F2C8F" stroke-width="2" stroke-linecap="round" stroke-linejoin="round"/>
<path d="M18 12H20C21.1038 12 22 12.8962 22 14V20C22 21.1038 21.1038 22 20 22H18C16.8962 22 16 21.1038 16 20V14C16 12.8962 16.8962 12 18 12V12" stroke="#2F2C8F" stroke-width="2" stroke-linecap="round" stroke-linejoin="round"/>
</svg>
