<svg width="27" height="27" viewBox="0 0 27 27" fill="none" xmlns="http://www.w3.org/2000/svg">
<g clip-path="url(#clip0_110_123)">
<path d="M2.74366 18.6373C1.97285 17.0265 1.58203 15.298 1.58203 13.5C1.58203 6.9284 6.9284 1.58203 13.5 1.58203C16.1111 1.58203 18.5941 2.41603 20.6446 3.95808L18.6709 4.21791C18.2378 4.27491 17.9329 4.67227 17.9899 5.10537C18.0469 5.53853 18.4443 5.84339 18.8774 5.78638L22.5898 5.29764C23.0229 5.24064 23.3278 4.84328 23.2708 4.41018L22.782 0.697781C22.725 0.264674 22.3277 -0.0402363 21.8946 0.0167695H21.8945C21.4614 0.0737754 21.1565 0.471129 21.2135 0.904236L21.4334 2.57423C19.1421 0.902707 16.3905 0 13.5 0C9.89402 0 6.50389 1.40421 3.95402 3.95402C1.40426 6.50389 0 9.89402 0 13.5C0 15.5363 0.442969 17.4945 1.31667 19.3202C1.50525 19.7143 1.97754 19.8809 2.37162 19.6923C2.76565 19.5037 2.93224 19.0314 2.74366 18.6373Z" fill="#2F2C8F"/>
<path d="M25.6837 7.67975C25.4951 7.28566 25.0229 7.11908 24.6288 7.30765C24.2347 7.49623 24.0682 7.96852 24.2567 8.3626C25.0276 9.97348 25.4184 11.7019 25.4184 13.4999C25.4184 20.0715 20.072 25.4179 13.5004 25.4179C10.8896 25.4179 8.40721 24.5836 6.35695 23.0417L8.32942 22.782C8.76253 22.725 9.06744 22.3277 9.01044 21.8946C8.95343 21.4614 8.55608 21.1565 8.12297 21.2135L4.41052 21.7023C3.97741 21.7593 3.6725 22.1567 3.72951 22.5898L4.2183 26.3022C4.27531 26.7353 4.67266 27.0402 5.10577 26.9832C5.53888 26.9262 5.84384 26.5288 5.78684 26.0957L5.56693 24.4254C7.85829 26.0971 10.6098 26.9999 13.5004 26.9999C17.1064 26.9999 20.4965 25.5957 23.0464 23.0459C25.5961 20.496 27.0004 17.1059 27.0004 13.4999C27.0004 11.4636 26.5574 9.50546 25.6837 7.67975Z" fill="#2F2C8F"/>
<path d="M20.8415 12.3062L21.2124 12.092C21.5907 11.8736 21.7203 11.3898 21.5019 11.0115L19.6562 7.81465C19.4377 7.43634 18.954 7.30666 18.5756 7.52514L18.1805 7.75332C17.7492 8.00228 17.2334 7.99954 16.804 7.74505C16.384 7.49603 16.137 7.03366 16.137 6.54539V6.11719C16.137 5.68034 15.7828 5.32617 15.346 5.32617H11.6546C11.2177 5.32617 10.8636 5.68034 10.8636 6.11719V6.54555C10.8636 7.03376 10.6166 7.49609 10.1966 7.74499C9.76722 7.99949 9.25137 8.00223 8.82011 7.75327L8.42491 7.52509C8.0466 7.30666 7.56281 7.43629 7.34439 7.8146L5.49868 11.0115C5.28026 11.3898 5.40988 11.8736 5.7882 12.092L6.15908 12.3061C6.58195 12.5503 6.85886 12.9954 6.8644 13.4836C6.87009 13.9827 6.61454 14.4308 6.18333 14.6797L5.7882 14.9078C5.40988 15.1263 5.28026 15.6101 5.49868 15.9884L7.34439 19.1852C7.56281 19.5636 8.0466 19.6932 8.42491 19.4748L8.82011 19.2466C9.25131 18.9976 9.76716 19.0004 10.1965 19.2548C10.6166 19.504 10.8636 19.9663 10.8636 20.4546V20.8828C10.8636 21.3197 11.2177 21.6738 11.6546 21.6738H15.346C15.7828 21.6738 16.137 21.3197 16.137 20.8828V20.4545C16.137 19.9662 16.384 19.5039 16.804 19.255C17.2333 19.0005 17.7492 18.9978 18.1805 19.2467L18.5756 19.4749C18.954 19.6933 19.4377 19.5637 19.6562 19.1854L21.5019 15.9885C21.7203 15.6102 21.5907 15.1264 21.2124 14.908L20.8172 14.6799C20.386 14.4309 20.1305 13.9828 20.1362 13.4838C20.1417 12.9954 20.4186 12.5503 20.8415 12.3062ZM19.7455 15.8666L18.6724 17.7252C17.8181 17.3503 16.8511 17.4009 16.0271 17.8766C15.2031 18.3524 14.6759 19.1645 14.5734 20.0918H12.4272C12.3247 19.1645 11.7975 18.3524 10.9735 17.8766C10.1494 17.4009 9.1825 17.3503 8.3282 17.7252L7.25511 15.8666C8.00678 15.3141 8.44659 14.4514 8.44659 13.5C8.44659 12.5486 8.00678 11.6859 7.25511 11.1334L8.3282 9.27482C9.1825 9.64965 10.1495 9.59913 10.9735 9.12336C11.7975 8.64765 12.3247 7.83554 12.4272 6.9082H14.5734C14.6759 7.83548 15.2031 8.64759 16.0271 9.12336C16.8512 9.59913 17.8181 9.6496 18.6724 9.27482L19.7455 11.1334C18.9938 11.6859 18.554 12.5486 18.554 13.5C18.554 14.4514 18.9938 15.3141 19.7455 15.8666Z" fill="#2F2C8F"/>
<path d="M13.5 10.0723C11.6099 10.0723 10.0723 11.6099 10.0723 13.5C10.0723 15.3901 11.6099 16.9277 13.5 16.9277C15.3901 16.9277 16.9277 15.3901 16.9277 13.5C16.9277 11.6099 15.3901 10.0723 13.5 10.0723ZM13.5 15.3457C12.4823 15.3457 11.6543 14.5177 11.6543 13.5C11.6543 12.4823 12.4823 11.6543 13.5 11.6543C14.5177 11.6543 15.3457 12.4823 15.3457 13.5C15.3457 14.5177 14.5177 15.3457 13.5 15.3457Z" fill="#2F2C8F"/>
</g>
<defs>
<clipPath id="clip0_110_123">
<rect width="27" height="27" fill="white"/>
</clipPath>
</defs>
</svg>
