<svg width="24" height="24" viewBox="0 0 24 24" fill="none" xmlns="http://www.w3.org/2000/svg">
<g clip-path="url(#clip0_119_46)">
<path d="M0 12.0001C0 15.4862 5.37262 18.3126 12 18.3126C18.6274 18.3126 24 15.4862 24 12.0001C24 8.51388 18.6272 5.6875 12 5.6875C5.37281 5.6875 0 8.51388 0 12.0001Z" fill="url(#paint0_radial_119_46)"/>
<path d="M12 17.8439C18.3684 17.8439 23.5312 15.2273 23.5312 12.0001C23.5312 8.77244 18.3684 6.15625 12 6.15625C5.63156 6.15625 0.46875 8.77244 0.46875 12.0001C0.46875 15.2273 5.63156 17.8439 12 17.8439Z" fill="#777BB3"/>
<path d="M6.5196 12.7244C7.04329 12.7244 7.43404 12.6278 7.68135 12.4375C7.92623 12.2489 8.09517 11.9224 8.18385 11.4672C8.26635 11.0416 8.23485 10.7446 8.0901 10.5841C7.94235 10.4202 7.62267 10.3371 7.14004 10.3371H6.30304L5.83935 12.7244H6.5196ZM3.78229 15.6649C3.76309 15.6649 3.74413 15.6606 3.72677 15.6524C3.70942 15.6442 3.6941 15.6322 3.68191 15.6174C3.66972 15.6025 3.66097 15.5852 3.65628 15.5666C3.65159 15.5479 3.65108 15.5285 3.65479 15.5097L4.88423 9.1838C4.89004 9.15423 4.90592 9.12758 4.92917 9.10841C4.95242 9.08923 4.98159 9.0787 5.01173 9.07861H7.66185C8.49473 9.07861 9.11461 9.30474 9.50442 9.7508C9.89592 10.1989 10.017 10.8259 9.86386 11.6136C9.80142 11.9344 9.69417 12.2324 9.5451 12.4994C9.38998 12.774 9.19199 13.0222 8.9586 13.2344C8.67154 13.5029 8.3466 13.6979 7.99354 13.8124C7.64629 13.9257 7.20004 13.9831 6.66792 13.9831H5.59467L5.28829 15.5596C5.28251 15.5892 5.26659 15.616 5.24326 15.6352C5.21993 15.6544 5.19065 15.6649 5.16042 15.6649H3.78229Z" fill="black"/>
<path d="M6.40994 10.4672H7.1395C7.72207 10.4672 7.92438 10.5951 7.99319 10.6714C8.107 10.7977 8.12875 11.0646 8.05525 11.4424C7.97294 11.8656 7.82032 12.1657 7.6015 12.3341C7.37763 12.5066 7.01313 12.594 6.51907 12.594H5.99669L6.40994 10.4672ZM7.66132 8.94843H5.01138C4.95095 8.94844 4.8924 8.96944 4.84575 9.00785C4.79909 9.04626 4.76724 9.09969 4.75563 9.15899L3.52619 15.4851C3.51893 15.5227 3.52008 15.5616 3.52956 15.5987C3.53904 15.6359 3.55661 15.6706 3.58103 15.7002C3.60544 15.7298 3.63609 15.7536 3.67079 15.77C3.70549 15.7864 3.74338 15.7949 3.78175 15.795H5.15988C5.2203 15.7949 5.27883 15.7739 5.32545 15.7354C5.37207 15.697 5.40388 15.6435 5.41544 15.5842L5.70138 14.1131H6.66719C7.21319 14.1131 7.67294 14.0535 8.0335 13.9361C8.40419 13.8157 8.74525 13.6116 9.04713 13.3292C9.29024 13.1078 9.49652 12.8492 9.65819 12.5629C9.814 12.2841 9.92613 11.9728 9.991 11.6383C10.1523 10.809 10.0212 10.1451 9.60175 9.66506C9.18625 9.18937 8.53338 8.94824 7.66132 8.94824V8.94843ZM5.68075 12.8542H6.51907C7.07469 12.8544 7.48844 12.7497 7.76032 12.5402C8.03219 12.3309 8.21582 11.9815 8.31119 11.4919C8.40219 11.0216 8.36063 10.6899 8.1865 10.4966C8.01213 10.3034 7.66313 10.2067 7.1395 10.2067H6.19525L5.68075 12.8542ZM7.66151 9.2083C8.45876 9.2083 9.04019 9.41755 9.40582 9.83605C9.77144 10.2546 9.88144 10.8387 9.73582 11.5884C9.67557 11.8974 9.57401 12.1798 9.43113 12.4356C9.288 12.6916 9.10107 12.9257 8.87032 13.1381C8.59532 13.3956 8.28957 13.5791 7.95307 13.6884C7.61669 13.7979 7.18813 13.8526 6.66738 13.8525H5.48688L5.16007 15.5344H3.78194L5.01157 9.2083H7.66151Z" fill="#F2F4F6"/>
<path d="M13.0244 13.9833C13.0052 13.9833 12.9862 13.9791 12.9688 13.9709C12.9514 13.9627 12.936 13.9508 12.9238 13.936C12.9116 13.9211 12.9028 13.9038 12.8981 13.8851C12.8933 13.8665 12.8928 13.8471 12.8965 13.8282L13.4402 11.0292C13.4922 10.763 13.4794 10.5721 13.4046 10.4911C13.3587 10.4418 13.2211 10.3591 12.814 10.3591H11.8285L11.1449 13.8781C11.139 13.9077 11.123 13.9344 11.0997 13.9536C11.0763 13.9727 11.047 13.9832 11.0168 13.9831H9.64993C9.63073 13.9831 9.61176 13.9789 9.59438 13.9707C9.57701 13.9625 9.56165 13.9506 9.54942 13.9358C9.53718 13.921 9.52837 13.9037 9.5236 13.8851C9.51884 13.8665 9.51825 13.8471 9.52187 13.8282L10.7515 7.50216C10.7573 7.47253 10.7733 7.44583 10.7966 7.42665C10.8199 7.40746 10.8492 7.39697 10.8794 7.39697H12.2462C12.2654 7.39696 12.2844 7.40119 12.3018 7.40936C12.3192 7.41754 12.3345 7.42945 12.3468 7.44424C12.359 7.45904 12.3678 7.47636 12.3726 7.49496C12.3773 7.51357 12.3779 7.53299 12.3743 7.55185L12.0777 9.07885H13.1376C13.9452 9.07885 14.4927 9.22097 14.8116 9.51404C15.1366 9.81272 15.2382 10.2903 15.1131 10.934L14.5411 13.8781C14.5352 13.9077 14.5192 13.9343 14.4959 13.9535C14.4726 13.9726 14.4434 13.9831 14.4132 13.9831L13.0244 13.9833Z" fill="black"/>
<path d="M12.2457 7.2666H10.8786C10.8181 7.26662 10.7596 7.28765 10.7129 7.32609C10.6663 7.36454 10.6344 7.41801 10.6229 7.47735L9.39342 13.8032C9.38612 13.8409 9.38725 13.8798 9.39671 13.917C9.40618 13.9542 9.42375 13.9888 9.44817 14.0185C9.47258 14.0481 9.50324 14.072 9.53796 14.0884C9.57267 14.1048 9.61058 14.1133 9.64898 14.1134H11.016C11.0765 14.1133 11.1351 14.0923 11.1817 14.0539C11.2284 14.0154 11.2602 13.9619 11.2718 13.9026L11.935 10.4892H12.8129C13.2194 10.4892 13.3049 10.576 13.308 10.5799C13.3328 10.6062 13.3652 10.729 13.3116 11.0044L12.7679 13.8032C12.7606 13.8409 12.7617 13.8798 12.7712 13.917C12.7806 13.9542 12.7982 13.9889 12.8227 14.0185C12.8471 14.0482 12.8778 14.072 12.9125 14.0884C12.9473 14.1048 12.9852 14.1133 13.0236 14.1134H14.4126C14.473 14.1133 14.5316 14.0922 14.5782 14.0538C14.6248 14.0154 14.6566 13.9619 14.6682 13.9026L15.2402 10.9589C15.3743 10.2677 15.2595 9.74948 14.899 9.41816C14.5547 9.10204 13.9784 8.94848 13.1369 8.94848H12.235L12.5014 7.57691C12.5087 7.53919 12.5076 7.50031 12.4982 7.46306C12.4887 7.42582 12.4711 7.39112 12.4467 7.36147C12.4223 7.33181 12.3916 7.30793 12.3568 7.29153C12.322 7.27513 12.2841 7.26662 12.2457 7.2666ZM12.2457 7.52723L11.9189 9.20873H13.1369C13.9032 9.20873 14.4318 9.34248 14.7225 9.60998C15.0135 9.87723 15.1009 10.3104 14.9847 10.9094L14.4124 13.8529H13.0236L13.5675 11.0539C13.6294 10.7355 13.6066 10.5184 13.4991 10.4025C13.3916 10.2868 13.163 10.2289 12.8132 10.2289H11.7203L11.016 13.8527H9.64879L10.8784 7.52666H12.2457V7.52723Z" fill="#F2F4F6"/>
<path d="M17.2753 12.7244C17.799 12.7244 18.1899 12.6278 18.4374 12.4375C18.6819 12.2489 18.851 11.9224 18.9397 11.4672C19.0222 11.0416 18.9909 10.7446 18.846 10.5841C18.6982 10.4202 18.3785 10.3371 17.8959 10.3371H17.0591L16.595 12.7244H17.2753ZM14.5385 15.6649C14.5193 15.665 14.5003 15.6607 14.4829 15.6525C14.4655 15.6443 14.4501 15.6324 14.4379 15.6175C14.4257 15.6027 14.4169 15.5853 14.4122 15.5667C14.4075 15.548 14.4069 15.5285 14.4107 15.5097L15.6401 9.1838C15.6459 9.15417 15.6618 9.12747 15.6852 9.10829C15.7085 9.0891 15.7378 9.07861 15.768 9.07861H18.4179C19.2508 9.07861 19.8707 9.30474 20.2603 9.7508C20.652 10.1989 20.7729 10.8259 20.6197 11.6136C20.5611 11.9239 20.4536 12.2228 20.3012 12.4994C20.146 12.774 19.948 13.0222 19.7147 13.2344C19.4278 13.5029 19.1025 13.6979 18.7496 13.8124C18.4023 13.9257 17.9561 13.9831 17.4238 13.9831H16.3507L16.0445 15.5596C16.0387 15.5893 16.0228 15.616 15.9994 15.6352C15.9761 15.6545 15.9467 15.665 15.9165 15.6649H14.5385Z" fill="black"/>
<path d="M17.1658 10.4672H17.8954C18.4779 10.4672 18.6802 10.5951 18.7489 10.6714C18.8632 10.7977 18.8846 11.0646 18.8113 11.4424C18.7288 11.8656 18.5762 12.1657 18.3574 12.3341C18.1333 12.5066 17.7688 12.594 17.2749 12.594H16.7526L17.1658 10.4672ZM18.4172 8.94843H15.7672C15.7068 8.94848 15.6483 8.9695 15.6017 9.00791C15.5551 9.04632 15.5233 9.09972 15.5117 9.15899L14.2821 15.4851C14.2748 15.5228 14.2759 15.5616 14.2854 15.5988C14.2949 15.636 14.3125 15.6706 14.3369 15.7002C14.3614 15.7299 14.3921 15.7537 14.4268 15.7701C14.4615 15.7865 14.4994 15.795 14.5378 15.795H15.9159C15.9764 15.7949 16.0349 15.7739 16.0815 15.7354C16.1281 15.697 16.1599 15.6435 16.1715 15.5842L16.4574 14.1131H17.4231C17.9689 14.1131 18.4288 14.0535 18.7892 13.9361C19.1601 13.8157 19.5011 13.6116 19.8032 13.329C20.0462 13.1077 20.2524 12.8491 20.4141 12.5629C20.5701 12.2841 20.6818 11.9728 20.7469 11.6383C20.9081 10.809 20.7772 10.1451 20.3576 9.66506C19.9421 9.18937 19.2894 8.94824 18.417 8.94824L18.4172 8.94843ZM16.4366 12.8542H17.2747C17.8304 12.8544 18.2442 12.7497 18.5164 12.5402C18.7882 12.3309 18.9717 11.9815 19.0669 11.4919C19.1582 11.0216 19.1167 10.6899 18.9422 10.4966C18.7677 10.3034 18.4187 10.2067 17.8954 10.2067H16.9513L16.4366 12.8542ZM18.4172 9.2083C19.2144 9.2083 19.7959 9.41755 20.1615 9.83605C20.5271 10.2546 20.6371 10.8387 20.4913 11.5884C20.4313 11.8974 20.3298 12.1798 20.1868 12.4356C20.0438 12.6916 19.8568 12.9257 19.6258 13.1381C19.3508 13.3956 19.0451 13.5791 18.7086 13.6884C18.3723 13.7979 17.9438 13.8526 17.4231 13.8525H16.2427L15.9156 15.5344H14.5374L15.7671 9.2083H18.4172Z" fill="#F2F4F6"/>
</g>
<defs>
<radialGradient id="paint0_radial_119_46" cx="0" cy="0" r="1" gradientUnits="userSpaceOnUse" gradientTransform="translate(7.20487 7.90675) scale(15.7578)">
<stop stop-color="#AEB2D5"/>
<stop offset="0.3" stop-color="#AEB2D5"/>
<stop offset="0.75" stop-color="#484C89"/>
<stop offset="1" stop-color="#484C89"/>
</radialGradient>
<clipPath id="clip0_119_46">
<rect width="24" height="24" fill="white"/>
</clipPath>
</defs>
</svg>
