<svg width="24" height="24" viewBox="0 0 24 24" fill="none" xmlns="http://www.w3.org/2000/svg">
<g clip-path="url(#clip0_119_61)">
<path d="M3.93933 17.0858C2.90095 17.0864 2.0572 16.2415 2.05702 15.2033L2.05664 9.43974C2.05627 8.40249 2.89983 7.55781 3.93689 7.55762C4.44108 7.55724 4.9132 7.75281 5.26908 8.10831C5.62495 8.46381 5.8207 8.93668 5.82108 9.43937L5.82052 15.2031C5.82186 15.4502 5.77395 15.6951 5.67959 15.9235C5.58524 16.1519 5.44632 16.3592 5.27095 16.5332C5.09668 16.709 4.88922 16.8483 4.66061 16.9432C4.43201 17.0381 4.18683 17.0865 3.93933 17.0858ZM3.93783 8.06331C3.17789 8.06293 2.56195 8.68037 2.56177 9.43974L2.5627 15.2027C2.56265 15.5679 2.70761 15.9182 2.96572 16.1766C3.22382 16.4349 3.57395 16.5802 3.93914 16.5805C4.11997 16.5805 4.29902 16.5448 4.46605 16.4756C4.63309 16.4063 4.78485 16.3048 4.91264 16.1769C5.04043 16.0489 5.14176 15.8971 5.21084 15.73C5.27991 15.5628 5.31538 15.3838 5.3152 15.2029V9.43899C5.31481 9.07397 5.16951 8.72403 4.91124 8.46608C4.65297 8.20812 4.30285 8.06326 3.93783 8.06331Z" fill="#F2F4F6"/>
<path d="M5.85186 17.2541C5.85144 17.4471 5.88912 17.6383 5.96275 17.8167C6.03638 17.9951 6.1445 18.1572 6.28091 18.2937C6.41733 18.4302 6.57935 18.5385 6.75769 18.6122C6.93603 18.686 7.12718 18.7238 7.32017 18.7235H8.32011L8.32123 21.773C8.32105 22.5324 8.93792 23.1495 9.69655 23.1497C9.87737 23.1496 10.0564 23.1139 10.2234 23.0447C10.3905 22.9754 10.5422 22.8739 10.67 22.7459C10.7978 22.618 10.8991 22.4661 10.9681 22.299C11.0372 22.1318 11.0726 21.9527 11.0724 21.7719L11.0726 18.7234L12.9305 18.7228L12.9304 21.7721C12.9311 22.5317 13.5487 23.1495 14.3072 23.148C15.0677 23.1485 15.6842 22.5307 15.684 21.771L15.683 18.7224L16.6867 18.7222C17.4965 18.7224 18.1552 18.0645 18.1552 17.2528L18.1535 8.32123L5.84961 8.32348L5.85186 17.2541ZM20.0627 17.0835C19.0247 17.0837 18.1804 16.2401 18.1805 15.2017L18.179 9.43835C18.1794 8.40016 19.0224 7.55566 20.0599 7.55566C21.0986 7.55548 21.9435 8.39979 21.9433 9.43779L21.9439 15.2008C21.944 16.2384 21.1005 17.0837 20.0627 17.0835ZM20.0608 8.06173C19.3009 8.06098 18.6851 8.67804 18.6851 9.43835L18.6857 15.2015C18.6856 15.3823 18.7211 15.5614 18.7903 15.7284C18.8594 15.8955 18.9608 16.0472 19.0887 16.175C19.2165 16.3029 19.3683 16.4042 19.5354 16.4733C19.7025 16.5424 19.8815 16.5779 20.0623 16.5778C20.243 16.5777 20.422 16.5421 20.589 16.4729C20.7559 16.4036 20.9076 16.3022 21.0354 16.1744C21.1632 16.0465 21.2645 15.8947 21.3336 15.7277C21.4027 15.5607 21.4382 15.3817 21.4382 15.201L21.4367 9.43798C21.4368 9.25724 21.4013 9.07825 21.3322 8.91125C21.2631 8.74424 21.1618 8.59249 21.034 8.46468C20.9062 8.33686 20.7545 8.23549 20.5875 8.16634C20.4205 8.0972 20.2415 8.06165 20.0608 8.06173Z" fill="#F2F4F6"/>
<path d="M3.93856 8.06348C3.17862 8.06311 2.56269 8.68054 2.5625 9.43992L2.56344 15.2029C2.56336 15.3837 2.59892 15.5628 2.66807 15.7298C2.73723 15.8969 2.83862 16.0487 2.96647 16.1766C3.09431 16.3044 3.24609 16.4058 3.41315 16.475C3.5802 16.5442 3.75925 16.5798 3.94006 16.5797C4.12086 16.5799 4.29993 16.5444 4.46699 16.4753C4.63406 16.4062 4.78585 16.3048 4.91366 16.1769C5.04147 16.049 5.14279 15.8972 5.21182 15.7301C5.28085 15.563 5.31623 15.3839 5.31594 15.2031V9.43917C5.31554 9.07414 5.17024 8.72421 4.91197 8.46625C4.6537 8.2083 4.30359 8.06343 3.93856 8.06348ZM15.0371 2.8881L15.9976 1.13404C16.0221 1.08954 16.0279 1.03716 16.0138 0.988375C15.9997 0.939589 15.9669 0.898383 15.9224 0.873792C15.8779 0.849614 15.8257 0.844071 15.7771 0.858377C15.7285 0.872683 15.6876 0.90567 15.6633 0.950104L14.693 2.72254C13.8766 2.35917 12.9629 2.15554 11.9962 2.15648C11.0321 2.15554 10.1188 2.3586 9.30575 2.71992L8.33431 0.951979C8.32245 0.929911 8.30633 0.910415 8.28689 0.894621C8.26744 0.878827 8.24505 0.867049 8.22102 0.859969C8.19699 0.852888 8.17179 0.850647 8.14689 0.853373C8.12198 0.8561 8.09787 0.863741 8.07594 0.875854C8.0538 0.887688 8.03424 0.903819 8.01841 0.923302C8.00257 0.942786 7.99079 0.965231 7.98373 0.989324C7.97668 1.01342 7.9745 1.03868 7.97733 1.06362C7.98015 1.08857 7.98792 1.1127 8.00019 1.1346L8.96112 2.88754C7.073 3.86123 5.79725 5.7156 5.79837 7.84467L18.1955 7.84317C18.1961 5.71486 16.9226 3.86423 15.0371 2.8881ZM9.17656 5.59879C9.03869 5.59872 8.9065 5.54388 8.80906 5.44633C8.71162 5.34879 8.65693 5.21654 8.657 5.07867C8.65707 4.9408 8.71191 4.8086 8.80946 4.71116C8.907 4.61373 9.03925 4.55903 9.17712 4.5591C9.31501 4.55935 9.44718 4.61422 9.5447 4.71171C9.64222 4.80919 9.69714 4.94134 9.69744 5.07923C9.69724 5.21719 9.64226 5.34943 9.54458 5.44686C9.4469 5.54429 9.31453 5.59894 9.17656 5.59879ZM14.8216 5.59767C14.7534 5.59772 14.6858 5.58431 14.6227 5.55822C14.5596 5.53213 14.5023 5.49387 14.4541 5.44561C14.4058 5.39736 14.3675 5.34006 14.3414 5.27701C14.3153 5.21395 14.3019 5.14636 14.3019 5.0781C14.3026 4.94035 14.3576 4.80843 14.4549 4.71093C14.5522 4.61344 14.6841 4.55821 14.8218 4.55723C14.9594 4.55836 15.0911 4.6137 15.1882 4.71123C15.2853 4.80877 15.3401 4.94065 15.3406 5.07829C15.3407 5.14649 15.3273 5.21403 15.3013 5.27705C15.2752 5.34007 15.237 5.39734 15.1888 5.44558C15.1406 5.49382 15.0834 5.53208 15.0204 5.55818C14.9573 5.58427 14.8898 5.59769 14.8216 5.59767ZM5.849 8.32354L5.85106 17.2551C5.85079 17.448 5.88859 17.6391 5.9623 17.8174C6.036 17.9956 6.14416 18.1576 6.28058 18.294C6.417 18.4304 6.579 18.5386 6.75728 18.6123C6.93557 18.6859 7.12665 18.7237 7.31956 18.7234L8.3195 18.7238L8.32062 21.7733C8.32044 22.5327 8.93769 23.1499 9.69594 23.1499C10.4564 23.1499 11.0726 22.5321 11.0728 21.7724L11.072 18.7236L12.9299 18.723L12.9307 21.7724C12.9307 22.5312 13.5481 23.1497 14.3066 23.1482C15.0671 23.1488 15.6836 22.531 15.6834 21.7712L15.6824 18.7227L16.6859 18.7219C16.8789 18.7219 17.0699 18.684 17.2481 18.6102C17.4264 18.5364 17.5883 18.4282 17.7248 18.2918C17.8612 18.1554 17.9694 17.9934 18.0433 17.8152C18.1171 17.637 18.1552 17.446 18.1552 17.253L18.1535 8.32148L5.849 8.32354ZM21.4366 9.43785C21.4366 9.25712 21.401 9.07817 21.3318 8.9112C21.2626 8.74424 21.1612 8.59253 21.0334 8.46475C20.9056 8.33698 20.7539 8.23562 20.5869 8.16648C20.4199 8.09734 20.2409 8.06177 20.0602 8.06179C19.3002 8.06104 18.6845 8.6781 18.6845 9.43842L18.6856 15.2018C18.6855 15.3825 18.721 15.5615 18.7901 15.7285C18.8592 15.8955 18.9606 16.0473 19.0884 16.1751C19.2162 16.3029 19.3679 16.4042 19.5349 16.4734C19.702 16.5425 19.8809 16.578 20.0617 16.5779C20.2425 16.5779 20.4215 16.5423 20.5885 16.4731C20.7555 16.4039 20.9072 16.3025 21.035 16.1746C21.1627 16.0467 21.2641 15.8949 21.3331 15.7279C21.4022 15.5608 21.4377 15.3818 21.4376 15.201L21.4366 9.43785Z" fill="#A4C439"/>
</g>
<defs>
<clipPath id="clip0_119_61">
<rect width="24" height="24" fill="white"/>
</clipPath>
</defs>
</svg>
