<svg width="24" height="24" viewBox="0 0 24 24" fill="none" xmlns="http://www.w3.org/2000/svg">
<path d="M9.85887 12.7155C9.85887 12.7155 9.24312 13.0738 10.2978 13.1949C11.5754 13.3408 12.2285 13.3198 13.6362 13.0538C13.6362 13.0538 14.0073 13.2857 14.5241 13.4867C11.3673 14.8391 7.37956 13.4083 9.85887 12.7155ZM9.4728 10.9502C9.4728 10.9502 8.78205 11.4619 9.83749 11.571C11.2025 11.7118 12.2801 11.7234 14.1461 11.3642C14.1461 11.3642 14.4035 11.6259 14.8091 11.7686C10.9931 12.885 6.74262 11.8566 9.4728 10.9502Z" fill="#0074BD"/>
<path d="M12.7249 7.95604C13.5032 8.85191 12.5209 9.65741 12.5209 9.65741C12.5209 9.65741 14.4959 8.63798 13.5889 7.36091C12.7416 6.17048 12.0923 5.57929 15.6085 3.54004C15.6085 3.54004 10.0889 4.91816 12.7249 7.95604Z" fill="#EA2D2E"/>
<path d="M16.8997 14.0215C16.8997 14.0215 17.3557 14.3974 16.3976 14.688C14.5758 15.2398 8.81435 15.4063 7.21403 14.71C6.63916 14.4596 7.71785 14.1124 8.05703 14.0395C8.41085 13.9628 8.61297 13.9768 8.61297 13.9768C7.97322 13.5263 4.47766 14.8616 6.83753 15.2447C13.2733 16.2878 18.5688 14.7748 16.8997 14.0215ZM10.1553 9.12134C10.1553 9.12134 7.22491 9.81752 9.11772 10.0706C9.91722 10.1775 11.5098 10.153 12.9945 10.0285C14.2074 9.92665 15.4247 9.70896 15.4247 9.70896C15.4247 9.70896 14.9973 9.89234 14.6878 10.1035C11.7114 10.8863 5.96285 10.5216 7.61791 9.72134C9.01722 9.04427 10.1553 9.12134 10.1553 9.12134ZM15.4125 12.0595C18.4378 10.4878 17.0388 8.97734 16.0625 9.18077C15.8238 9.23065 15.7166 9.27377 15.7166 9.27377C15.7166 9.27377 15.8057 9.13427 15.975 9.07446C17.9066 8.39571 19.3918 11.0771 15.3521 12.1391C15.3521 12.1391 15.3984 12.0971 15.4125 12.0595Z" fill="#0074BD"/>
<path d="M13.5887 0.246094C13.5887 0.246094 15.2641 1.92216 11.9995 4.49897C9.38162 6.56653 11.4025 7.74516 11.9984 9.09234C10.4702 7.71347 9.34937 6.49959 10.1012 5.37009C11.2054 3.71222 14.2645 2.90803 13.5887 0.246094Z" fill="#EA2D2E"/>
<path d="M10.4535 16.3199C13.3567 16.5055 17.8164 16.2166 17.922 14.8428C17.922 14.8428 17.7191 15.3635 15.5221 15.7767C13.0438 16.2432 9.98658 16.189 8.17383 15.8898C8.17383 15.8898 8.54508 16.1973 10.4535 16.3199Z" fill="#0074BD"/>
<path d="M17.7866 18.7839H17.6981V18.7344H17.9362V18.7839H17.8481V19.0308H17.7864L17.7866 18.7839ZM18.2619 18.7962H18.2607L18.173 19.0308H18.1325L18.0453 18.7962H18.0444V19.0308H17.9859V18.7344H18.0716L18.1524 18.9442L18.2334 18.7344H18.3185V19.0308H18.2619V18.7962ZM9.97625 21.5694C9.7025 21.8067 9.413 21.9402 9.15294 21.9402C8.78281 21.9402 8.582 21.7179 8.582 21.3618C8.582 20.9765 8.79688 20.6943 9.65788 20.6943H9.97606L9.97625 21.5694ZM10.7321 22.4221V19.7827C10.7321 19.1079 10.3471 18.6627 9.42013 18.6627C8.879 18.6627 8.40462 18.7966 8.01894 18.9669L8.12994 19.4343C8.43369 19.3227 8.8265 19.2192 9.212 19.2192C9.74637 19.2192 9.97606 19.4343 9.97606 19.8794V20.213H9.70906C8.41138 20.213 7.82581 20.7164 7.82581 21.4736C7.82581 22.1259 8.21169 22.4966 8.93825 22.4966C9.40512 22.4966 9.75406 22.3038 10.0798 22.0216L10.139 22.4223L10.7321 22.4221ZM13.2543 22.4221H12.3118L11.1772 18.7304H12.0005L12.7048 20.999L12.8613 21.6806C13.2168 20.6947 13.4688 19.6938 13.5948 18.7306H14.3956C14.1813 19.9458 13.7951 21.2802 13.2543 22.4221ZM16.8708 21.5694C16.5961 21.8067 16.3064 21.9402 16.0473 21.9402C15.6768 21.9402 15.4762 21.7179 15.4762 21.3618C15.4762 20.9765 15.6916 20.6943 16.5517 20.6943H16.8706L16.8708 21.5694ZM17.627 22.4221V19.7827C17.627 19.1079 17.2409 18.6627 16.3147 18.6627C15.773 18.6627 15.2988 18.7966 14.9131 18.9669L15.0243 19.4343C15.3281 19.3227 15.7214 19.2192 16.1069 19.2192C16.6406 19.2192 16.8708 19.4343 16.8708 19.8794V20.213H16.6038C15.3057 20.213 14.7204 20.7164 14.7204 21.4736C14.7204 22.1259 15.1059 22.4966 15.8323 22.4966C16.2993 22.4966 16.6477 22.3038 16.9743 22.0216L17.0339 22.4223L17.627 22.4221ZM6.99706 23.0495C6.782 23.3643 6.43363 23.6135 6.05263 23.7539L5.67969 23.3142C5.96975 23.1654 6.21819 22.9252 6.33388 22.7013C6.43363 22.502 6.47506 22.2457 6.47506 21.6324V17.417H7.27831V21.5744C7.27831 22.3947 7.21306 22.7264 6.99706 23.0495Z" fill="#EA2D2E"/>
</svg>
