<svg width="24" height="24" viewBox="0 0 24 24" fill="none" xmlns="http://www.w3.org/2000/svg">
<path d="M9.36556 11.1303C10.302 12.777 11.6712 14.1462 13.3179 15.0826L14.2024 13.8443C14.4965 13.4327 15.0516 13.3055 15.4956 13.548C16.9024 14.3165 18.4571 14.7835 20.0789 14.9119C20.599 14.9531 21 15.3871 21 15.9088V20.3716C21 20.8843 20.6122 21.3139 20.1022 21.3663C19.5723 21.4208 19.0377 21.4482 18.5 21.4482C9.93959 21.4482 3 14.5086 3 5.94824C3 5.41051 3.02742 4.87595 3.08189 4.346C3.1343 3.83599 3.56394 3.44824 4.07665 3.44824H8.53942C9.0611 3.44824 9.49513 3.84928 9.5363 4.36933C9.66467 5.99112 10.1317 7.54588 10.9002 8.95268C11.1427 9.39664 11.0155 9.95178 10.6039 10.2458L9.36556 11.1303ZM6.84425 10.4734L8.7442 9.11633C8.20547 7.95338 7.83628 6.72007 7.64727 5.44824H5.00907C5.00303 5.61456 5 5.78124 5 5.94824C5 13.404 11.0442 19.4482 18.5 19.4482C18.667 19.4482 18.8337 19.4452 19 19.4391V16.8009C17.7282 16.6119 16.4949 16.2427 15.3319 15.704L13.9748 17.604C13.4258 17.3907 12.8956 17.1397 12.3874 16.8543L12.3293 16.8212C10.3697 15.7069 8.74134 14.0785 7.627 12.1189L7.59394 12.0608C7.30849 11.5526 7.05754 11.0224 6.84425 10.4734Z" fill="white"/>
</svg>
