<svg width="32" height="32" viewBox="0 0 32 32" fill="none" xmlns="http://www.w3.org/2000/svg">
<g clip-path="url(#clip0_110_77)">
<path d="M27.9226 17.3599C28.1949 14.974 27.7451 12.5612 26.6313 10.4337C25.5175 8.30612 23.791 6.56169 21.675 5.426C19.5591 4.29031 17.1511 3.8156 14.7624 4.06326C12.3738 4.31093 10.1144 5.26957 8.27647 6.81521C6.43854 8.36086 5.10664 10.4224 4.45303 12.7332C3.79941 15.044 3.85415 17.4977 4.61016 19.7771C5.36618 22.0564 6.78869 24.0565 8.69371 25.5186C10.5987 26.9808 12.8986 27.8377 15.2959 27.9786" stroke="#2F2C8F" stroke-width="2" stroke-linecap="round" stroke-linejoin="round"/>
<path d="M4.80078 12H27.2008" stroke="#2F2C8F" stroke-width="2" stroke-linecap="round" stroke-linejoin="round"/>
<path d="M4.80078 20H18.0008" stroke="#2F2C8F" stroke-width="2" stroke-linecap="round" stroke-linejoin="round"/>
<path d="M15.3335 4C13.0873 7.59948 11.8965 11.7572 11.8965 16C11.8965 20.2428 13.0873 24.4005 15.3335 28" stroke="#2F2C8F" stroke-width="2" stroke-linecap="round" stroke-linejoin="round"/>
<path d="M16.666 4C19.3327 8.27467 20.4487 13.2173 20.01 18.0493" stroke="#2F2C8F" stroke-width="2" stroke-linecap="round" stroke-linejoin="round"/>
<path d="M26.666 28.0001L29.3327 25.3334L26.666 22.6667" stroke="#2F2C8F" stroke-width="2" stroke-linecap="round" stroke-linejoin="round"/>
<path d="M22.6667 22.6667L20 25.3334L22.6667 28.0001" stroke="#2F2C8F" stroke-width="2" stroke-linecap="round" stroke-linejoin="round"/>
</g>
<defs>
<clipPath id="clip0_110_77">
<rect width="32" height="32" fill="white"/>
</clipPath>
</defs>
</svg>
