<svg width="24" height="24" viewBox="0 0 24 24" fill="none" xmlns="http://www.w3.org/2000/svg">
<path d="M2.24283 7.30242L11.4895 1.75667C11.8062 1.56672 12.2019 1.56679 12.5185 1.75685L21.7573 7.3024C21.9079 7.39277 22 7.5555 22 7.7311V20.4481C22 21.0004 21.5523 21.4481 21 21.4481H3C2.44772 21.4481 2 21.0004 2 20.4481V7.73122C2 7.55555 2.09218 7.39278 2.24283 7.30242ZM4 8.58068V19.4481H20V8.58021L12.0037 3.78044L4 8.58068ZM12.0597 14.1464L17.3556 9.68339L18.6444 11.2128L12.074 16.7498L5.36401 11.2198L6.63599 9.67637L12.0597 14.1464Z" fill="white"/>
</svg>
