<svg width="40" height="24" viewBox="0 0 40 24" fill="none" xmlns="http://www.w3.org/2000/svg">
<g clip-path="url(#clip0_119_36)">
<path d="M11.3105 8.69601C11.3105 9.18809 11.3636 9.58699 11.4562 9.87954C11.5739 10.2087 11.7155 10.5286 11.88 10.8369C11.9463 10.9432 11.9727 11.0496 11.9727 11.1428C11.9727 11.2756 11.8933 11.4086 11.7211 11.5417L10.8867 12.1001C10.7675 12.1799 10.6483 12.2198 10.5422 12.2198C10.4098 12.2198 10.2773 12.1533 10.1448 12.0336C9.96624 11.8412 9.80659 11.6319 9.66813 11.4086C9.53562 11.1828 9.40312 10.9299 9.2575 10.6242C8.22427 11.8474 6.92625 12.459 5.36344 12.4591C4.25094 12.4591 3.36344 12.1399 2.71438 11.5018C2.06547 10.8634 1.73438 10.0124 1.73438 8.94871C1.73438 7.81852 2.13172 6.90103 2.93969 6.20958C3.7475 5.51813 4.82047 5.1724 6.18469 5.1724C6.635 5.1724 7.09859 5.21224 7.58859 5.27875C8.07875 5.34526 8.58203 5.45161 9.11188 5.5713V4.60063C9.11188 3.58997 8.89984 2.88534 8.48922 2.4731C8.06547 2.06087 7.35016 1.86134 6.33031 1.86134C5.86672 1.86134 5.39 1.91467 4.89984 2.03436C4.40969 2.15405 3.93297 2.30024 3.46938 2.48644C3.2575 2.57946 3.09859 2.63263 3.00578 2.6593C2.91297 2.68597 2.84688 2.69914 2.79391 2.69914C2.60844 2.69914 2.51578 2.56612 2.51578 2.28691V1.6353C2.51578 1.4226 2.54234 1.26307 2.60844 1.17005C2.67469 1.07687 2.79391 0.98385 2.97938 0.890831C3.44292 0.651353 3.99917 0.451876 4.64813 0.292399C5.29734 0.119537 5.98609 0.0398503 6.71453 0.0398503C8.29078 0.0398503 9.44313 0.398752 10.1848 1.11687C10.9133 1.83483 11.2842 2.92518 11.2842 4.38793V8.69601H11.3105ZM5.93297 10.7172C6.37016 10.7172 6.82047 10.6375 7.29719 10.4778C7.77406 10.3183 8.19797 10.0257 8.55547 9.62683C8.7675 9.37428 8.92641 9.09507 9.00578 8.77585C9.08531 8.45679 9.13828 8.07106 9.13828 7.61899V7.06056C8.7366 6.96247 8.32976 6.88701 7.91969 6.83452C7.50675 6.78191 7.09094 6.75525 6.67469 6.75467C5.78719 6.75467 5.13828 6.92754 4.70125 7.28659C4.26422 7.64565 4.05219 8.15091 4.05219 8.81569C4.05219 9.44063 4.21109 9.90604 4.54219 10.2253C4.86016 10.5577 5.32375 10.7172 5.93297 10.7172ZM16.5688 12.1533C16.3303 12.1533 16.1714 12.1134 16.0655 12.0202C15.9595 11.9406 15.8667 11.7544 15.7873 11.5018L12.6748 1.22322C12.5952 0.957183 12.5555 0.784321 12.5555 0.691301C12.5555 0.478595 12.6614 0.358752 12.8734 0.358752H14.1714C14.423 0.358752 14.5953 0.398752 14.688 0.491772C14.7939 0.571615 14.8734 0.757811 14.9528 1.01036L17.178 9.81303L19.2442 1.01036C19.3105 0.744478 19.39 0.571615 19.4958 0.491772C19.6019 0.412086 19.7873 0.358909 20.0258 0.358909H21.0853C21.3369 0.358909 21.5092 0.398752 21.615 0.491772C21.7211 0.571615 21.8137 0.757811 21.8667 1.01036L23.9595 9.91938L26.2508 1.01036C26.3302 0.744478 26.423 0.571615 26.5156 0.491772C26.6216 0.412086 26.7938 0.358909 27.0322 0.358909H28.2639C28.4759 0.358909 28.5952 0.465262 28.5952 0.691301C28.5952 0.757811 28.5819 0.824321 28.5686 0.904007C28.5553 0.983693 28.5289 1.0902 28.4759 1.23656L25.2838 11.515C25.2044 11.781 25.1117 11.9539 25.0056 12.0336C24.8997 12.1134 24.7275 12.1666 24.5025 12.1666H23.3634C23.1117 12.1666 22.9395 12.1268 22.8334 12.0336C22.7275 11.9406 22.6348 11.7677 22.5819 11.5018L20.5288 2.92518L18.4891 11.4883C18.423 11.7544 18.3434 11.9272 18.2375 12.0202C18.1316 12.1134 17.9461 12.1533 17.7078 12.1533H16.5688ZM33.5886 12.5123C32.8998 12.5123 32.2111 12.4325 31.5489 12.2729C30.8866 12.1134 30.3702 11.9404 30.0258 11.7412C29.8138 11.6213 29.668 11.4885 29.6152 11.3688C29.5636 11.2514 29.5366 11.1247 29.5356 10.9964V10.3183C29.5356 10.0391 29.6416 9.90605 29.8403 9.90605C29.9214 9.90635 30.0019 9.91986 30.0788 9.94605C30.1581 9.97271 30.2773 10.0257 30.4098 10.0789C30.8776 10.2856 31.366 10.4416 31.8667 10.5443C32.3856 10.6499 32.9136 10.7034 33.443 10.7038C34.2773 10.7038 34.9264 10.5577 35.3767 10.2651C35.827 9.97256 36.0655 9.54714 36.0655 9.00189C36.0655 8.62965 35.9463 8.32377 35.7078 8.07106C35.4694 7.81836 35.0191 7.59248 34.3702 7.37961L32.4495 6.78134C31.4827 6.47546 30.7675 6.02338 30.3303 5.42495C29.8933 4.83985 29.6681 4.1884 29.6681 3.49695C29.6681 2.93852 29.7873 2.44649 30.0258 2.02087C30.2641 1.59546 30.582 1.22322 30.9794 0.930674C31.3767 0.624791 31.827 0.398752 32.3569 0.239223C32.8866 0.0796934 33.4428 0.0131836 34.0256 0.0131836C34.317 0.0131836 34.6217 0.0265169 34.9131 0.0663601C35.2178 0.106203 35.4959 0.15938 35.7741 0.212556C36.0389 0.279066 36.2906 0.345576 36.5291 0.425419C36.7674 0.505105 36.9528 0.584844 37.0853 0.664635C37.2708 0.771144 37.4031 0.877497 37.4827 0.997184C37.5621 1.10354 37.6019 1.24978 37.6019 1.43593V2.06087C37.6019 2.34009 37.4959 2.48644 37.2972 2.48644C37.1912 2.48644 37.0191 2.4331 36.7941 2.32675C36.0389 1.98103 35.1911 1.80816 34.2509 1.80816C33.4959 1.80816 32.8998 1.92785 32.4892 2.18056C32.0788 2.4331 31.8667 2.81883 31.8667 3.36393C31.8667 3.73632 31.9992 4.05538 32.2641 4.30809C32.5289 4.56079 33.0191 4.81334 33.7211 5.03938L35.6019 5.63781C36.5555 5.94369 37.2442 6.3691 37.6548 6.9142C38.0655 7.4593 38.2642 8.0844 38.2642 8.77585C38.2642 9.34761 38.1448 9.8662 37.9197 10.3183C37.6814 10.7704 37.3634 11.1693 36.9528 11.4885C36.5422 11.8209 36.0522 12.0602 35.4827 12.2331C34.8866 12.4193 34.2641 12.5123 33.5886 12.5123Z" fill="#252F3E"/>
<path d="M36.092 18.9745C31.7345 22.2058 25.4033 23.9211 19.9597 23.9211C12.3304 23.9211 5.45639 21.0887 0.264355 16.3816C-0.14627 16.0094 0.224511 15.5041 0.714511 15.7965C6.33045 19.0677 13.2576 21.0489 20.4233 21.0489C25.2576 21.0489 30.5689 20.0384 35.4564 17.964C36.1848 17.6315 36.8073 18.4428 36.092 18.9745ZM37.9067 16.9002C37.3504 16.1822 34.2245 16.5545 32.8073 16.7273C32.3834 16.7807 32.3172 16.4083 32.7014 16.1291C35.1914 14.3738 39.2842 14.8792 39.7609 15.4641C40.2378 16.0625 39.6284 20.1713 37.2973 22.1393C36.9398 22.4451 36.5954 22.2856 36.7544 21.8867C37.284 20.5702 38.4629 17.605 37.9067 16.9002Z" fill="#FF9900"/>
</g>
<defs>
<clipPath id="clip0_119_36">
<rect width="40" height="24" fill="white"/>
</clipPath>
</defs>
</svg>
