<svg width="39" height="24" viewBox="0 0 39 24" fill="none" xmlns="http://www.w3.org/2000/svg">
<g clip-path="url(#clip0_119_13)">
<path d="M19.2794 23.931C19.1474 23.931 19.0242 23.8957 18.9097 23.8338L17.7388 23.136C17.5627 23.0388 17.6508 23.0035 17.7036 22.9858C17.9413 22.9063 17.9853 22.8886 18.2318 22.7473C18.2582 22.7296 18.2935 22.7385 18.3199 22.7561L19.2179 23.295C19.2531 23.3126 19.2971 23.3126 19.3234 23.295L22.8361 21.2544C22.8713 21.2367 22.889 21.2013 22.889 21.1572V17.0849C22.889 17.0406 22.8713 17.0054 22.8361 16.9876L19.3234 14.9559C19.2882 14.9382 19.2442 14.9382 19.2179 14.9559L15.7052 16.9876C15.67 17.0053 15.6523 17.0495 15.6523 17.0848V21.1572C15.6523 21.1925 15.67 21.2366 15.7052 21.2544L16.6648 21.8109C17.1842 22.0759 17.5099 21.7667 17.5099 21.4575V17.4381C17.5099 17.3852 17.554 17.3321 17.6156 17.3321H18.0645C18.1174 17.3321 18.1702 17.3763 18.1702 17.4381V21.4575C18.1702 22.1554 17.7916 22.5618 17.1314 22.5618C16.9289 22.5618 16.7705 22.5618 16.3214 22.3409L15.3971 21.8109C15.1682 21.6784 15.0273 21.431 15.0273 21.166V17.0937C15.0273 16.8287 15.1682 16.5813 15.3971 16.4488L18.9097 14.4082C19.1298 14.2845 19.4292 14.2845 19.6492 14.4082L23.1618 16.4488C23.3907 16.5813 23.5316 16.8287 23.5316 17.0937V21.166C23.5316 21.431 23.3907 21.6784 23.1618 21.8109L19.6492 23.8515C19.5347 23.9045 19.4027 23.931 19.2794 23.931ZM20.3623 21.1307C18.8218 21.1307 18.5048 20.424 18.5048 19.8233C18.5048 19.7703 18.5488 19.7173 18.6105 19.7173H19.0683C19.121 19.7173 19.1651 19.7526 19.1651 19.8057C19.2355 20.2738 19.438 20.5035 20.3712 20.5035C21.1107 20.5035 21.4277 20.3356 21.4277 19.9381C21.4277 19.7084 21.3396 19.5407 20.1863 19.4258C19.2267 19.3286 18.6281 19.1166 18.6281 18.3481C18.6281 17.6325 19.2268 17.2085 20.2303 17.2085C21.3572 17.2085 21.9118 17.5972 21.9823 18.4451C21.9823 18.4717 21.9735 18.4982 21.9559 18.5247C21.9382 18.5424 21.9118 18.56 21.8854 18.56H21.4276C21.3836 18.56 21.3396 18.5247 21.3308 18.4805C21.2251 17.9947 20.9522 17.8357 20.2303 17.8357C19.4204 17.8357 19.3235 18.1184 19.3235 18.3303C19.3235 18.5866 19.438 18.666 20.5296 18.8074C21.6125 18.9488 22.1231 19.1519 22.1231 19.9116C22.1143 20.689 21.4805 21.1307 20.3623 21.1307Z" fill="#539E43"/>
<path d="M8.38102 8.00348C8.38102 7.8445 8.29297 7.69424 8.15213 7.61475L4.4194 5.45933C4.3577 5.42394 4.28732 5.40629 4.21693 5.39742H4.18167C4.11128 5.39742 4.04082 5.42394 3.9792 5.45933L0.246475 7.61475C0.105557 7.69424 0.0175781 7.84443 0.0175781 8.00348L0.0264141 13.7984C0.0264141 13.8779 0.0704414 13.9574 0.140824 13.9928C0.211283 14.037 0.299262 14.037 0.360961 13.9928L2.57947 12.7207C2.72031 12.6412 2.80836 12.491 2.80836 12.332V9.62004C2.80836 9.46106 2.89634 9.31087 3.03726 9.23138L3.9792 8.68366C4.04966 8.63948 4.12888 8.62175 4.2081 8.62175C4.28732 8.62175 4.36654 8.63948 4.42823 8.68366L5.37018 9.23138C5.51109 9.31087 5.59907 9.46099 5.59907 9.62004V12.332C5.59907 12.491 5.68713 12.6412 5.82797 12.7207L8.04647 13.9928C8.08075 14.0144 8.12042 14.0259 8.16092 14.0259C8.20142 14.0259 8.2411 14.0144 8.27537 13.9928C8.34583 13.9574 8.38986 13.8779 8.38986 13.7984L8.38102 8.00348ZM26.3228 0.0265414C26.2524 -0.00884714 26.1643 -0.00884714 26.1026 0.0265414C26.0323 0.0707197 25.9882 0.141344 25.9882 0.220834V5.96287C25.9882 6.01584 25.9619 6.06881 25.909 6.1042C25.8562 6.13064 25.8034 6.13064 25.7506 6.1042L24.8174 5.56534C24.749 5.52628 24.6716 5.50574 24.5929 5.50574C24.5142 5.50574 24.4368 5.52628 24.3684 5.56534L20.6356 7.72962C20.4948 7.80911 20.4067 7.95931 20.4067 8.11829V12.438C20.4067 12.597 20.4948 12.7472 20.6356 12.8267L24.3684 14.991C24.4368 15.0301 24.5142 15.0506 24.5929 15.0506C24.6716 15.0506 24.749 15.0301 24.8174 14.991L28.5501 12.8267C28.691 12.7472 28.779 12.597 28.779 12.438V1.66962C28.779 1.50178 28.691 1.35166 28.5501 1.2721L26.3228 0.0265414ZM25.9795 11.0158C25.9795 11.06 25.9619 11.0953 25.9266 11.1129L24.6501 11.8549C24.6323 11.8637 24.6127 11.8682 24.5929 11.8682C24.573 11.8682 24.5535 11.8637 24.5356 11.8549L23.2591 11.1129C23.2239 11.0953 23.2063 11.0511 23.2063 11.0158V9.53169C23.2063 9.48751 23.2239 9.4522 23.2591 9.43454L24.5356 8.69245C24.5535 8.6837 24.573 8.67915 24.5929 8.67915C24.6127 8.67915 24.6323 8.6837 24.6501 8.69245L25.9266 9.43454C25.9619 9.45212 25.9795 9.49638 25.9795 9.53169V11.0158ZM38.7447 9.49638C38.8856 9.41689 38.9648 9.26669 38.9648 9.10764V8.05645C38.9648 7.89747 38.8767 7.74728 38.7447 7.66779L35.0384 5.51238C34.9699 5.47331 34.8926 5.45277 34.8138 5.45277C34.7351 5.45277 34.6577 5.47331 34.5893 5.51238L30.8566 7.67658C30.7157 7.75607 30.6277 7.90626 30.6277 8.06524V12.385C30.6277 12.544 30.7158 12.6942 30.8566 12.7737L34.5629 14.8938C34.7038 14.9733 34.8711 14.9733 35.0032 14.8938L37.248 13.6395C37.3185 13.6041 37.3625 13.5246 37.3625 13.4451C37.3625 13.3656 37.3185 13.2862 37.248 13.2508L33.4977 11.0865C33.4272 11.0423 33.3832 10.9717 33.3832 10.8922V9.54063C33.3832 9.46114 33.4272 9.38165 33.4977 9.34626L34.6685 8.67487C34.7028 8.65322 34.7425 8.64173 34.783 8.64173C34.8235 8.64173 34.8632 8.65322 34.8974 8.67487L36.0684 9.34626C36.1388 9.39044 36.1828 9.46106 36.1828 9.54063V10.6007C36.1828 10.6802 36.2268 10.7597 36.2973 10.795C36.3315 10.8166 36.3712 10.8281 36.4117 10.8281C36.4522 10.8281 36.4919 10.8166 36.5261 10.795L38.7447 9.49638Z" fill="#333333"/>
<path d="M34.7571 9.29304C34.7701 9.28439 34.7854 9.27979 34.8011 9.27979C34.8168 9.27979 34.8321 9.28439 34.8451 9.29304L35.5582 9.70822C35.5846 9.72596 35.6022 9.7524 35.6022 9.78772V10.6182C35.6022 10.6535 35.5847 10.68 35.5582 10.6977L34.8451 11.1128C34.8321 11.1215 34.8168 11.1261 34.8011 11.1261C34.7854 11.1261 34.7701 11.1215 34.7571 11.1128L34.044 10.6977C34.0176 10.68 34 10.6535 34 10.6182V9.78779C34 9.7524 34.0175 9.72588 34.044 9.7083L34.7571 9.29304Z" fill="#539E43"/>
<path d="M14.6234 5.5298C14.555 5.49075 14.4777 5.47021 14.399 5.47021C14.3202 5.47021 14.2429 5.49075 14.1745 5.5298L10.4682 7.67627C10.3273 7.75576 10.248 7.90595 10.248 8.06493V12.367C10.248 12.526 10.3361 12.6762 10.4682 12.7557L14.1745 14.9023C14.2429 14.9414 14.3202 14.9619 14.399 14.9619C14.4777 14.9619 14.555 14.9414 14.6234 14.9023L18.3298 12.7557C18.4706 12.6762 18.5499 12.526 18.5499 12.367V8.06501C18.5499 7.90603 18.4618 7.75584 18.3298 7.67635L14.6234 5.5298Z" fill="url(#paint0_linear_119_13)"/>
<mask id="mask0_119_13" style="mask-type:luminance" maskUnits="userSpaceOnUse" x="10" y="5" width="9" height="10">
<path d="M14.6234 5.5298C14.555 5.49075 14.4777 5.47021 14.399 5.47021C14.3202 5.47021 14.2429 5.49075 14.1745 5.5298L10.4682 7.67627C10.3273 7.75576 10.248 7.90595 10.248 8.06493V12.367C10.248 12.526 10.3361 12.6762 10.4682 12.7557L14.1745 14.9023C14.2429 14.9414 14.3202 14.9619 14.399 14.9619C14.4777 14.9619 14.555 14.9414 14.6234 14.9023L18.3298 12.7557C18.4706 12.6762 18.5499 12.526 18.5499 12.367V8.06501C18.5499 7.90603 18.4618 7.75584 18.3298 7.67635L14.6234 5.5298Z" fill="white"/>
</mask>
<g mask="url(#mask0_119_13)">
<path d="M18.3394 7.67657L14.6155 5.53002C14.579 5.51147 14.5406 5.49666 14.501 5.48584L10.3281 12.6589C10.3627 12.7013 10.4045 12.7371 10.4514 12.7649L14.1753 14.9116C14.281 14.9734 14.4042 14.9911 14.5186 14.9557L18.4363 7.765C18.4099 7.72969 18.3746 7.70301 18.3394 7.67657Z" fill="url(#paint1_linear_119_13)"/>
</g>
<mask id="mask1_119_13" style="mask-type:luminance" maskUnits="userSpaceOnUse" x="10" y="5" width="9" height="10">
<path d="M14.6234 5.5298C14.555 5.49075 14.4777 5.47021 14.399 5.47021C14.3202 5.47021 14.2429 5.49075 14.1745 5.5298L10.4682 7.67627C10.3273 7.75576 10.248 7.90595 10.248 8.06493V12.367C10.248 12.526 10.3361 12.6762 10.4682 12.7557L14.1745 14.9023C14.2429 14.9414 14.3202 14.9619 14.399 14.9619C14.4777 14.9619 14.555 14.9414 14.6234 14.9023L18.3298 12.7557C18.4706 12.6762 18.5499 12.526 18.5499 12.367V8.06501C18.5499 7.90603 18.4618 7.75584 18.3298 7.67635L14.6234 5.5298Z" fill="white"/>
</mask>
<g mask="url(#mask1_119_13)">
<path fill-rule="evenodd" clip-rule="evenodd" d="M18.348 12.7558C18.4537 12.694 18.5329 12.588 18.5682 12.4732L14.4832 5.47679C14.3775 5.45913 14.263 5.46792 14.1663 5.52976L10.4688 7.66759L14.4567 14.9643C14.5147 14.9548 14.5711 14.937 14.624 14.9113L18.348 12.7558Z" fill="url(#paint2_linear_119_13)"/>
<path fill-rule="evenodd" clip-rule="evenodd" d="M18.3472 12.7559L14.6321 14.9025C14.5797 14.9293 14.5231 14.9472 14.4648 14.9555L14.5353 15.088L18.6554 12.6941V12.6411L18.5497 12.4644C18.5321 12.588 18.4529 12.694 18.3472 12.7559Z" fill="url(#paint3_linear_119_13)"/>
<path fill-rule="evenodd" clip-rule="evenodd" d="M18.3472 12.7559L14.6321 14.9025C14.5797 14.9293 14.5231 14.9472 14.4648 14.9555L14.5353 15.088L18.6554 12.6941V12.6411L18.5497 12.4644C18.5321 12.588 18.4529 12.694 18.3472 12.7559Z" fill="url(#paint4_linear_119_13)"/>
</g>
</g>
<defs>
<linearGradient id="paint0_linear_119_13" x1="15.9089" y1="7.13003" x2="11.8267" y2="13.5226" gradientUnits="userSpaceOnUse">
<stop stop-color="#41873F"/>
<stop offset="0.3288" stop-color="#418B3D"/>
<stop offset="0.6352" stop-color="#419637"/>
<stop offset="0.9319" stop-color="#3FA92D"/>
<stop offset="1" stop-color="#3FAE2A"/>
</linearGradient>
<linearGradient id="paint1_linear_119_13" x1="13.8371" y1="10.7202" x2="24.0272" y2="5.20282" gradientUnits="userSpaceOnUse">
<stop offset="0.1376" stop-color="#41873F"/>
<stop offset="0.4032" stop-color="#54A044"/>
<stop offset="0.7136" stop-color="#66B848"/>
<stop offset="0.9081" stop-color="#6CC04A"/>
</linearGradient>
<linearGradient id="paint2_linear_119_13" x1="10.1133" y1="10.2162" x2="18.6896" y2="10.2162" gradientUnits="userSpaceOnUse">
<stop offset="0.09192" stop-color="#6CC04A"/>
<stop offset="0.2864" stop-color="#66B848"/>
<stop offset="0.5968" stop-color="#54A044"/>
<stop offset="0.8624" stop-color="#41873F"/>
</linearGradient>
<linearGradient id="paint3_linear_119_13" x1="10.1125" y1="13.7834" x2="18.6888" y2="13.7834" gradientUnits="userSpaceOnUse">
<stop offset="0.09192" stop-color="#6CC04A"/>
<stop offset="0.2864" stop-color="#66B848"/>
<stop offset="0.5968" stop-color="#54A044"/>
<stop offset="0.8624" stop-color="#41873F"/>
</linearGradient>
<linearGradient id="paint4_linear_119_13" x1="19.9382" y1="6.92666" x2="17.7511" y2="18.3478" gradientUnits="userSpaceOnUse">
<stop stop-color="#41873F"/>
<stop offset="0.3288" stop-color="#418B3D"/>
<stop offset="0.6352" stop-color="#419637"/>
<stop offset="0.9319" stop-color="#3FA92D"/>
<stop offset="1" stop-color="#3FAE2A"/>
</linearGradient>
<clipPath id="clip0_119_13">
<rect width="39" height="24" fill="white"/>
</clipPath>
</defs>
</svg>
