<svg width="99" height="30" viewBox="0 0 99 30" fill="none" xmlns="http://www.w3.org/2000/svg">
<g clip-path="url(#clip0_110_11)">
<path d="M-1.45967 9.34424C-3.02393 9.34424 -4.36073 9.89928 -5.47032 11.0089C-6.58039 12.119 -7.13506 13.4553 -7.13506 15.0188C-7.13506 16.5831 -6.58039 17.9194 -5.47032 19.0289C-4.36073 20.1392 -3.02393 20.6936 -1.45967 20.6936C0.129407 20.6936 1.47265 20.1392 2.56983 19.0289C3.66701 17.9194 4.21571 16.5831 4.21571 15.0188C4.21571 13.4553 3.66701 12.119 2.56983 11.0089C1.47265 9.89928 0.129407 9.34424 -1.45967 9.34424ZM-1.45967 6.2042C0.154229 6.2042 1.63638 6.59553 2.98608 7.37709C4.33505 8.15913 5.4074 9.23079 6.20194 10.5927C6.99648 11.9547 7.39387 13.4299 7.39387 15.0188C7.39387 16.6332 6.99648 18.1152 6.20194 19.4641C5.4074 20.8136 4.33505 21.8852 2.98608 22.6797C1.63638 23.4741 0.154229 23.8713 -1.45967 23.8713C-3.04875 23.8713 -4.5185 23.4741 -5.86747 22.6797C-7.21716 21.8852 -8.28899 20.8136 -9.0836 19.4641C-9.87802 18.1152 -10.2754 16.6332 -10.2754 15.0188C-10.2754 13.4299 -9.87802 11.9547 -9.0836 10.5927C-8.28899 9.23079 -7.21716 8.15913 -5.86747 7.37709C-4.5185 6.59553 -3.04875 6.2042 -1.45967 6.2042Z" fill="#EC5F3A"/>
<path d="M25.8565 6.43127V23.5688H22.792V21.4502C21.152 22.9634 19.2603 23.7579 17.1166 23.8336C14.4683 23.9341 12.4374 23.1403 11.0252 21.4502C9.61224 19.7608 8.90625 17.617 8.90625 15.0189V6.43127H11.971V15.0189C11.971 16.7591 12.387 18.2033 13.2195 19.3506C14.0518 20.4986 15.3385 21.0472 17.0789 20.9962C18.2386 20.9461 19.2544 20.6557 20.1246 20.1262C20.9948 19.5965 21.6568 18.96 22.111 18.2156C22.565 17.472 22.792 16.8102 22.792 16.2296V6.43127H25.8565Z" fill="#EC5F3A"/>
<path d="M39.0987 19.2182C39.0987 18.5124 38.7393 17.9887 38.0206 17.6482C37.3018 17.3077 36.1852 16.9483 34.6721 16.5701C33.1837 16.2173 31.9605 15.8576 31.0022 15.4918C30.0433 15.1266 29.2108 14.5715 28.505 13.8273C27.7985 13.0837 27.4202 12.0937 27.3699 10.8576C27.319 9.74816 27.6849 8.73318 28.4671 7.81215C29.2487 6.89178 30.586 6.43129 32.4777 6.43129H41.4067V9.30647H33.4992C32.6414 9.30647 31.935 9.40761 31.3805 9.60917C30.8254 9.81135 30.548 10.2144 30.548 10.8198C30.5227 11.4505 30.8566 11.9299 31.5507 12.2574C32.2443 12.5854 33.3479 12.9383 34.8613 13.3164C36.3745 13.7204 37.6168 14.111 38.588 14.4895C39.5589 14.8676 40.404 15.4352 41.1229 16.1918C41.842 16.9483 42.2136 17.9451 42.2394 19.1805C42.264 20.2906 41.8919 21.2989 41.1229 22.2069C40.3532 23.1149 39.0233 23.5688 37.1311 23.5688H27.6348V20.7315H36.1098C38.1023 20.7315 39.0987 20.2273 39.0987 19.2182Z" fill="#EC5F3A"/>
<path d="M48.4626 18.9912C49.5598 20.1013 50.9031 20.6557 52.4924 20.6557C54.0557 20.6557 55.3925 20.1013 56.5028 18.9912C57.6124 17.8817 58.1675 16.5451 58.1675 14.9811C58.1675 13.4176 57.6124 12.0812 56.5028 10.971C55.3925 9.86157 54.0557 9.30644 52.4924 9.30644C50.9031 9.30644 49.5598 9.86157 48.4626 10.971C47.3655 12.0812 46.8167 13.4176 46.8167 14.9811C46.8167 16.5451 47.3655 17.8817 48.4626 18.9912ZM49.4841 6.82855C50.4548 6.41242 51.4577 6.19194 52.4924 6.1665C54.0812 6.1417 55.5502 6.52585 56.8999 7.32037C58.2491 8.11479 59.3215 9.19289 60.116 10.5549C60.9106 11.9168 61.308 13.3922 61.308 14.9811C61.308 16.5955 60.9106 18.0832 60.116 19.4452C59.3215 20.8071 58.2491 21.8853 56.8999 22.6798C55.5502 23.4742 54.0812 23.8585 52.4924 23.8335C50.3734 23.8082 48.4817 23.0014 46.8167 21.4124V30H43.752V6.43125H46.8167V8.54987C47.6237 7.81864 48.513 7.2446 49.4841 6.82855Z" fill="#EC5F3A"/>
<path d="M62.8965 23.5688H65.9236V6.43129H62.8965V23.5688ZM65.8099 1.70252C66.1882 2.08077 66.3775 2.5478 66.3775 3.10217C66.3775 3.63173 66.1882 4.08587 65.8099 4.46412C65.4314 4.84237 64.9646 5.03161 64.4099 5.03161C63.8803 5.03161 63.4263 4.84237 63.048 4.46412C62.6695 4.08587 62.4805 3.63173 62.4805 3.10217C62.4805 2.5478 62.6695 2.08077 63.048 1.70252C63.4263 1.32403 63.8803 1.13503 64.4099 1.13503C64.9646 1.13503 65.4314 1.32403 65.8099 1.70252Z" fill="#EC5F3A"/>
<path d="M79.5056 11.0846C78.7488 9.6979 77.664 9.01693 76.2515 9.04172C74.9398 9.06709 73.7858 9.6789 72.7898 10.8765C71.7931 12.0747 71.2953 13.2286 71.2953 14.338L71.2576 23.5688H68.2305V6.43128H71.2953V8.58775C72.0013 7.85652 72.6886 7.28255 73.3571 6.86643C74.0252 6.45028 74.8517 6.21734 75.8355 6.16653C78.2817 5.96495 80.2245 6.84741 81.6622 8.81475L79.5056 11.0846Z" fill="#EC5F3A"/>
<path d="M94.223 11.0845C93.0879 9.92481 91.7132 9.34424 90.099 9.34424C88.5348 9.34424 87.1982 9.89928 86.0884 11.0089C84.9783 12.119 84.4239 13.4553 84.4239 15.0188C84.4239 15.5485 84.4993 16.0533 84.6509 16.5323L94.223 11.0845ZM86.0884 19.0289C87.1982 20.1392 88.5348 20.6936 90.099 20.6936C91.1583 20.6936 92.1356 20.4228 93.0314 19.8803C93.9264 19.3382 94.614 18.6257 95.0935 17.7428L97.7797 19.4452C96.9976 20.7822 95.9257 21.854 94.5636 22.6608C93.2015 23.4681 91.7132 23.8713 90.099 23.8713C88.51 23.8713 87.0402 23.4741 85.6912 22.6797C84.3415 21.8852 83.2699 20.8136 82.4754 19.4641C81.6806 18.1152 81.2832 16.6332 81.2832 15.0188C81.2832 13.4299 81.6806 11.9547 82.4754 10.5927C83.2699 9.23079 84.3415 8.15913 85.6912 7.37709C87.0402 6.59553 88.51 6.2042 90.099 6.2042C92.218 6.2042 94.0966 6.91061 95.7365 8.32281C96.2911 8.77681 96.7706 9.27515 97.1742 9.81713C97.5776 10.3598 98.0191 11.0721 98.4986 11.9547L86.0884 19.0289Z" fill="#EC5F3A"/>
</g>
<defs>
<clipPath id="clip0_110_11">
<rect width="130" height="30" fill="white" transform="translate(-31.5)"/>
</clipPath>
</defs>
</svg>
