<svg width="24" height="24" viewBox="0 0 24 24" fill="none" xmlns="http://www.w3.org/2000/svg">
<g clip-path="url(#clip0_119_59)">
<path d="M23.9722 6.84017C23.9662 6.81767 23.955 6.79817 23.9468 6.77642C23.9326 6.736 23.9151 6.69685 23.8942 6.65942C23.8571 6.60558 23.8166 6.55422 23.7728 6.50567C23.7518 6.48644 23.7298 6.46841 23.7067 6.45167C23.6869 6.43357 23.6661 6.41655 23.6445 6.40067L23.6115 6.38567L23.5853 6.36767L19.0853 4.11767C18.9811 4.06565 18.8664 4.03857 18.75 4.03857C18.6336 4.03857 18.5189 4.06565 18.4147 4.11767L13.9147 6.36767L13.8885 6.38567L13.8555 6.40067C13.8339 6.41655 13.8131 6.43357 13.7933 6.45167C13.7377 6.48997 13.6901 6.53861 13.653 6.59492C13.6359 6.61555 13.6198 6.63708 13.605 6.65942C13.5844 6.69688 13.5671 6.73602 13.5532 6.77642C13.5457 6.79817 13.5338 6.81767 13.5278 6.84017C13.5096 6.90488 13.5003 6.97173 13.5 7.03892V11.0754L10.5 12.5754V4.03892C10.4997 3.97173 10.4904 3.90488 10.4722 3.84017C10.4663 3.81767 10.455 3.79817 10.4467 3.77642C10.4326 3.736 10.4151 3.69685 10.3942 3.65942C10.3797 3.6371 10.3639 3.61557 10.347 3.59492C10.3099 3.53861 10.2623 3.48997 10.2067 3.45167C10.1869 3.43357 10.1661 3.41655 10.1445 3.40067L10.1115 3.38567L10.0852 3.36767L5.58525 1.11767C5.48115 1.06565 5.36637 1.03857 5.25 1.03857C5.13363 1.03857 5.01885 1.06565 4.91475 1.11767L0.41475 3.36767L0.3885 3.38567L0.3555 3.40067C0.333852 3.41655 0.313072 3.43357 0.29325 3.45167C0.270244 3.46841 0.248208 3.48644 0.22725 3.50567C0.199972 3.53343 0.174896 3.56327 0.15225 3.59492C0.135364 3.61557 0.119592 3.6371 0.105 3.65942C0.0844491 3.69688 0.0671362 3.73602 0.05325 3.77642C0.04575 3.79817 0.03375 3.81767 0.02775 3.84017C0.00963847 3.90488 0.000304942 3.97173 0 4.03892L0 18.2889C7.43615e-05 18.4282 0.0389123 18.5646 0.112164 18.6831C0.185416 18.8015 0.290189 18.8972 0.41475 18.9594L4.91475 21.2094L9.41475 23.4594C9.42525 23.4647 9.43725 23.4632 9.44925 23.4677C9.54269 23.5142 9.64563 23.5384 9.75 23.5384C9.85437 23.5384 9.95731 23.5142 10.0507 23.4677C10.062 23.4632 10.0747 23.4647 10.0852 23.4602L19.0853 18.9602C19.2099 18.8979 19.3148 18.8021 19.388 18.6835C19.4613 18.5649 19.5001 18.4283 19.5 18.2889V14.2524L23.5853 12.2094C23.7098 12.1472 23.8146 12.0515 23.8878 11.9331C23.9611 11.8146 23.9999 11.6782 24 11.5389V7.03892C23.9997 6.97173 23.9904 6.90488 23.9722 6.84017ZM6.927 16.0389L10.0852 14.4594H10.086L14.25 12.3774L17.073 13.7889L9.75 17.4504L6.927 16.0389ZM18 9.75242V12.5754L15 11.0754V8.25242L18 9.75242ZM18.75 5.62742L21.573 7.03892L18.75 8.45042L15.927 7.03892L18.75 5.62742ZM6 14.8254V6.75242L9 5.25242V13.3254L6 14.8254ZM5.25 2.62742L8.073 4.03892L5.25 5.45042L2.427 4.03892L5.25 2.62742ZM1.5 5.25242L4.5 6.75242V19.3254L1.5 17.8254V5.25242ZM6 17.2524L9 18.7524V21.5754L6 20.0754V17.2524ZM18 17.8254L10.5 21.5754V18.7524L18 15.0024V17.8254ZM22.5 11.0754L19.5 12.5754V9.75242L22.5 8.25242V11.0754Z" fill="#FF5252"/>
</g>
<defs>
<clipPath id="clip0_119_59">
<rect width="24" height="24" fill="white"/>
</clipPath>
</defs>
</svg>
