<svg width="43" height="49" viewBox="0 0 43 49" fill="none" xmlns="http://www.w3.org/2000/svg">
<g clip-path="url(#clip0_110_513)">
<path d="M8.76735 20.3275C9.28654 16.6121 13.3659 12.6433 16.5552 12.5588C16.7777 12.5588 17.0002 12.4744 17.1486 12.3055C17.2969 12.221 17.4453 12.1366 17.5194 11.8833C18.632 9.51888 18.0386 7.66114 16.1844 6.14117C14.0334 4.36788 10.6216 6.14117 8.91569 7.74558C4.61382 11.7988 0.237776 18.8074 0.460287 25.4785C-0.281415 29.9541 -0.133075 34.7672 0.979478 38.736C1.72118 41.2693 3.87212 42.5359 6.09722 42.7048C8.32233 42.8739 12.9209 43.6337 14.9235 42.1139C16.9261 40.5938 17.0744 37.6383 17.2969 35.1051C17.5194 32.3185 18.187 27.0829 16.1102 24.8874C14.0334 22.7764 8.09982 25.0563 8.76735 20.3275Z" fill="url(#paint0_linear_110_513)"/>
<path d="M33.242 20.3275C33.7612 16.6121 37.8404 12.6433 41.0298 12.5588C41.2524 12.5588 41.4749 12.4744 41.6232 12.3055C41.7717 12.221 41.9199 12.1366 41.9942 11.8833C43.1067 9.51888 42.5134 7.66114 40.6591 6.14117C38.5082 4.36788 35.0963 6.14117 33.3903 7.74558C29.0884 11.7988 24.7124 18.8076 24.9349 25.4785C24.1932 29.9541 24.3415 34.7672 25.454 38.736C26.1957 41.2693 28.3466 42.5359 30.5718 42.7048C32.7969 42.8739 37.3955 43.6337 39.3981 42.1139C41.4006 40.5938 41.549 37.6383 41.7715 35.1051C41.9941 32.3185 42.6616 27.0829 40.5848 24.8874C38.5081 22.7764 32.5003 25.0563 33.242 20.3275Z" fill="url(#paint1_linear_110_513)"/>
</g>
<defs>
<linearGradient id="paint0_linear_110_513" x1="2.87423" y1="-0.578226" x2="32.2539" y2="13.5319" gradientUnits="userSpaceOnUse">
<stop stop-color="#0B1F3A"/>
<stop offset="0.5" stop-color="#061D3B"/>
<stop offset="1" stop-color="#001B3D"/>
</linearGradient>
<linearGradient id="paint1_linear_110_513" x1="27.3489" y1="-0.578226" x2="56.7287" y2="13.5321" gradientUnits="userSpaceOnUse">
<stop stop-color="#0B1F3A"/>
<stop offset="0.5" stop-color="#061D3B"/>
<stop offset="1" stop-color="#001B3D"/>
</linearGradient>
<clipPath id="clip0_110_513">
<rect width="42.5543" height="48.448" fill="white"/>
</clipPath>
</defs>
</svg>
