<svg width="27" height="27" viewBox="0 0 27 27" fill="none" xmlns="http://www.w3.org/2000/svg">
<g clip-path="url(#clip0_110_134)">
<path d="M11.1414 6.08714C11.0345 5.81619 10.7283 5.68314 10.4573 5.79019C8.92776 6.39384 7.62232 7.42992 6.68228 8.78645C5.71967 10.1754 5.21094 11.8059 5.21094 13.5018C5.21094 13.793 5.44708 14.029 5.73823 14.029C6.02937 14.029 6.26552 13.793 6.26552 13.5018C6.26552 10.5109 8.06286 7.86903 10.8444 6.77126C11.1154 6.66432 11.2483 6.35809 11.1414 6.08714Z" fill="#2F2C8F" stroke="#2F2C8F" stroke-width="0.2"/>
<path d="M16.9741 12.9795C16.6829 12.9795 16.4468 13.2156 16.4468 13.5068C16.4468 15.135 15.1222 16.4598 13.4939 16.4598C11.8656 16.4598 10.5409 15.1351 10.5409 13.5068C10.5409 11.8786 11.8656 10.5538 13.4939 10.5538C13.7851 10.5538 14.0212 10.3178 14.0212 10.0266C14.0212 9.73531 13.785 9.49927 13.4939 9.49927C11.2841 9.49927 9.48633 11.297 9.48633 13.5068C9.48633 15.7166 11.2841 17.5144 13.4939 17.5144C15.7036 17.5144 17.5014 15.7166 17.5014 13.5068C17.5014 13.2156 17.2653 12.9795 16.9741 12.9795Z" fill="#2F2C8F" stroke="#2F2C8F" stroke-width="0.2"/>
<path d="M18.9277 12.9595C18.6365 12.9595 18.4004 13.1956 18.4004 13.4868V13.5066C18.4004 13.7979 18.6365 14.0339 18.9277 14.0339C19.2188 14.0339 19.455 13.7978 19.455 13.5066V13.4868C19.455 13.1956 19.2188 12.9595 18.9277 12.9595Z" fill="#2F2C8F" stroke="#2F2C8F" stroke-width="0.2"/>
<path d="M16.7947 17.7685C16.6966 17.6699 16.5606 17.614 16.4219 17.614C16.2832 17.6141 16.1472 17.67 16.049 17.7685C15.951 17.8666 15.8945 18.0021 15.8945 18.1414C15.8945 18.28 15.9509 18.4161 16.049 18.5142C16.1472 18.6123 16.2827 18.6682 16.4219 18.6682C16.5606 18.6682 16.6966 18.6123 16.7947 18.5142C16.8927 18.4161 16.9492 18.28 16.9492 18.1414C16.9492 18.0021 16.8928 17.8666 16.7947 17.7685Z" fill="#2F2C8F" stroke="#2F2C8F" stroke-width="0.2"/>
<path d="M25.2071 19.1198C24.9042 19.1198 24.6188 19.1955 24.3683 19.3287L22.8078 17.7682C22.7088 17.6694 22.5747 17.6138 22.4349 17.6138H18.5898C18.2986 17.6138 18.0625 17.8499 18.0625 18.1411C18.0625 18.4323 18.2986 18.6684 18.5898 18.6684H22.2164L23.6227 20.0746C23.4898 20.3249 23.4141 20.61 23.4141 20.9125C23.4141 21.9011 24.2184 22.7054 25.207 22.7054C26.1956 22.7054 26.9999 21.9011 26.9999 20.9125C26.9999 19.924 26.1956 19.1198 25.2071 19.1198ZM25.2071 21.6509C24.7999 21.6509 24.4688 21.3197 24.4688 20.9126C24.4688 20.5055 24.8 20.1744 25.2071 20.1744C25.6141 20.1744 25.9453 20.5056 25.9453 20.9126C25.9453 21.3197 25.6141 21.6509 25.2071 21.6509Z" fill="#2F2C8F" stroke="#2F2C8F" stroke-width="0.2"/>
<path d="M25.2055 4.29611C24.2169 4.29611 23.4126 5.10036 23.4126 6.08897C23.4126 6.39156 23.4883 6.67665 23.6212 6.92692L22.2149 8.33319H16.4449C15.7118 7.91406 14.8886 7.64775 14.0256 7.56944V6.61627H19.5859C19.778 6.61627 19.9548 6.51185 20.0476 6.34373L21.65 3.4397C21.8674 3.53347 22.1067 3.58567 22.3581 3.58567C23.3467 3.58567 24.151 2.78142 24.151 1.79281C24.151 0.804252 23.3467 0 22.3581 0C21.3695 0 20.5652 0.804252 20.5652 1.79286C20.5652 2.13859 20.6639 2.46148 20.834 2.7356L19.2746 5.56163H14.0256V0.529506C14.0256 0.238254 13.7894 0.00221484 13.4983 0.00221484H11.1338C10.8426 0.00221484 10.6065 0.238307 10.6065 0.529506V2.16127C9.51697 2.43728 8.47963 2.86712 7.51296 3.44329L6.36356 2.29395C6.26463 2.19507 6.13048 2.13949 5.99057 2.13949C5.85072 2.13949 5.71656 2.19512 5.61769 2.2941L2.28472 5.62955C2.07889 5.83553 2.07895 6.16924 2.28482 6.37511L3.4329 7.52324C2.85678 8.49002 2.42694 9.52731 2.15098 10.6167H0.527291C0.236092 10.6167 0 10.8528 0 11.144V15.8594C0 16.1506 0.236145 16.3867 0.527291 16.3867H2.15109C2.42699 17.4761 2.85683 18.5134 3.43301 19.4801L2.28493 20.6283C2.07905 20.8341 2.079 21.1678 2.28482 21.3738L5.61779 24.7093C5.71667 24.8082 5.85083 24.8638 5.99068 24.8639H5.99078C6.13063 24.8639 6.26474 24.8083 6.36367 24.7094L7.51301 23.5601C8.47979 24.1363 9.51708 24.5662 10.6065 24.8422V26.4713C10.6065 26.7625 10.8424 26.9985 11.1334 26.9986H13.4979H13.4982C13.638 26.9986 13.7721 26.9444 13.871 26.8456C13.9699 26.7467 14.0256 26.6125 14.0256 26.4726V21.416H19.2737L20.8347 24.2633C20.6641 24.5377 20.5653 24.8609 20.5653 25.207C20.5653 26.1956 21.3696 26.9999 22.3582 26.9999C23.3468 26.9999 24.151 26.1956 24.151 25.207C24.151 24.2184 23.3467 23.4142 22.3581 23.4142C22.1073 23.4142 21.8685 23.4661 21.6515 23.5596L20.0483 20.6351C19.9558 20.4663 19.7785 20.3613 19.586 20.3613H14.0254V18.9416C14.0254 18.6504 13.7893 18.4143 13.4982 18.4143C10.7893 18.4143 8.58552 16.2105 8.58552 13.5017C8.58552 10.8256 10.7364 8.64279 13.4001 8.59032C13.4301 8.59565 13.4609 8.59892 13.4925 8.59892C15.5333 8.59892 17.3825 9.88353 18.0938 11.7954C18.1728 12.0078 18.374 12.139 18.588 12.139C18.6491 12.139 18.7113 12.1283 18.7719 12.1058C19.0448 12.0042 19.1838 11.7007 19.0822 11.4277C18.7939 10.6528 18.3511 9.96342 17.7978 9.38777H22.4333C22.5732 9.38777 22.7073 9.33219 22.8062 9.23331L24.3667 7.6728C24.6172 7.80601 24.9026 7.88179 25.2055 7.88179C26.1941 7.88179 26.9984 7.07753 26.9984 6.08892C26.9984 5.10036 26.1941 4.29611 25.2055 4.29611ZM22.3581 1.05463C22.7652 1.05463 23.0963 1.38581 23.0963 1.79286C23.0963 2.19992 22.7652 2.53109 22.3581 2.53109C21.9511 2.53109 21.6199 2.19992 21.6199 1.79286C21.6199 1.38581 21.951 1.05463 22.3581 1.05463ZM22.3581 24.4689C22.7652 24.4689 23.0963 24.8001 23.0963 25.2071C23.0963 25.6142 22.7651 25.9454 22.3581 25.9454C21.951 25.9454 21.6199 25.6142 21.6199 25.2071C21.6199 24.8001 21.951 24.4689 22.3581 24.4689ZM12.9709 7.55757C9.92672 7.82546 7.53089 10.3891 7.53089 13.5017C7.53089 16.6143 9.92661 19.178 12.9709 19.4459V25.9451L11.661 25.9444V24.4241C11.661 24.1756 11.4874 23.9608 11.2444 23.9086C9.98821 23.6387 8.80305 23.1476 7.72184 22.4489C7.51312 22.314 7.23858 22.3431 7.06277 22.5189L5.99084 23.5909L3.40332 21.0014L4.47435 19.9304C4.65006 19.7546 4.67928 19.4801 4.54433 19.2713C3.84565 18.1901 3.35454 17.005 3.08475 15.7488C3.03254 15.5058 2.81776 15.3322 2.56922 15.3322H1.05458V11.6715H2.56917C2.81776 11.6715 3.03249 11.4979 3.0847 11.2549C3.35454 9.9987 3.8456 8.8136 4.54428 7.73239C4.67923 7.52367 4.65001 7.24908 4.4743 7.07331L3.40327 6.00228L5.99078 3.41281L7.06271 4.48479C7.23853 4.66061 7.51307 4.68967 7.72179 4.55483C8.80295 3.85615 9.9881 3.36498 11.2444 3.09509C11.4874 3.04288 11.6609 2.82809 11.6609 2.57955V1.05685H12.9708V7.55757H12.9709ZM25.2055 6.82715C24.7984 6.82715 24.4673 6.49598 24.4673 6.08892C24.4673 5.68187 24.7984 5.35069 25.2055 5.35069C25.6126 5.35069 25.9437 5.68187 25.9437 6.08892C25.9437 6.49598 25.6126 6.82715 25.2055 6.82715Z" fill="#2F2C8F" stroke="#2F2C8F" stroke-width="0.2"/>
<path d="M25.2068 11.7156C24.4017 11.7156 23.7189 12.2491 23.4932 12.9811H21.9374C21.6462 12.9811 21.4102 13.2172 21.4102 13.5084C21.4102 13.7996 21.6463 14.0357 21.9374 14.0357H23.4932C23.7189 14.7677 24.4016 15.3013 25.2068 15.3013C26.1954 15.3013 26.9996 14.4971 26.9996 13.5084C26.9997 12.5198 26.1954 11.7156 25.2068 11.7156ZM25.2068 14.2467C24.7997 14.2467 24.4686 13.9155 24.4686 13.5084C24.4686 13.1014 24.7998 12.7702 25.2068 12.7702C25.6139 12.7702 25.945 13.1014 25.945 13.5084C25.945 13.9155 25.6138 14.2467 25.2068 14.2467Z" fill="#2F2C8F" stroke="#2F2C8F" stroke-width="0.2"/>
</g>
<defs>
<clipPath id="clip0_110_134">
<rect width="27" height="27" fill="white"/>
</clipPath>
</defs>
</svg>
