<svg width="27" height="27" viewBox="0 0 27 27" fill="none" xmlns="http://www.w3.org/2000/svg">
<path fill-rule="evenodd" clip-rule="evenodd" d="M18.4269 9.55119L15.9733 16.9154C15.8259 17.3564 16.0644 17.8346 16.5065 17.9819C16.9486 18.1293 17.4268 17.8908 17.5741 17.4487L20.0278 10.0844C20.1751 9.64344 19.9366 9.16532 19.4945 9.01794C19.0524 8.87057 18.5743 9.10907 18.4269 9.55119Z" fill="#2F2C8F"/>
<path fill-rule="evenodd" clip-rule="evenodd" d="M20.5734 11.6425L22.4308 13.4999L20.5734 15.3573C20.2438 15.6869 20.2438 16.2213 20.5734 16.5509C20.903 16.8805 21.4374 16.8805 21.767 16.5509L24.2206 14.0961C24.5503 13.7665 24.5503 13.2333 24.2206 12.9036L21.767 10.4489C21.4374 10.1193 20.903 10.1193 20.5734 10.4489C20.2438 10.7785 20.2438 11.3129 20.5734 11.6425Z" fill="#2F2C8F"/>
<path fill-rule="evenodd" clip-rule="evenodd" d="M14.2321 10.4489L11.7785 12.9036C11.4488 13.2333 11.4488 13.7665 11.7785 14.0961L14.2321 16.5509C14.5617 16.8805 15.0961 16.8805 15.4257 16.5509C15.7553 16.2213 15.7553 15.6869 15.4257 15.3573L13.5683 13.4999L15.4257 11.6425C15.7553 11.3129 15.7553 10.7785 15.4257 10.4489C15.0961 10.1193 14.5617 10.1193 14.2321 10.4489Z" fill="#2F2C8F"/>
<path fill-rule="evenodd" clip-rule="evenodd" d="M18.8438 7.3125C18.8438 7.3125 18.8438 5.85225 18.8438 4.5C18.8438 3.67988 18.5175 2.89237 17.9381 2.31188C17.3576 1.7325 16.5701 1.40625 15.75 1.40625H5.625C4.80488 1.40625 4.01737 1.7325 3.43688 2.31188C2.8575 2.89237 2.53125 3.67988 2.53125 4.5V22.5C2.53125 23.3201 2.8575 24.1076 3.43688 24.6881C4.01737 25.2675 4.80488 25.5938 5.625 25.5938H15.75C16.5701 25.5938 17.3576 25.2675 17.9381 24.6881C18.5175 24.1076 18.8438 23.3201 18.8438 22.5C18.8438 21.1478 18.8438 19.6875 18.8438 19.6875C18.8438 19.2218 18.4657 18.8438 18 18.8438C17.5343 18.8438 17.1562 19.2218 17.1562 19.6875V22.5C17.1562 22.8735 17.0077 23.2301 16.7445 23.4945C16.4801 23.7578 16.1235 23.9062 15.75 23.9062C13.0005 23.9062 8.3745 23.9062 5.625 23.9062C5.2515 23.9062 4.89488 23.7578 4.6305 23.4945C4.36725 23.2301 4.21875 22.8735 4.21875 22.5V4.5C4.21875 4.1265 4.36725 3.76987 4.6305 3.5055C4.89488 3.24225 5.2515 3.09375 5.625 3.09375H15.75C16.1235 3.09375 16.4801 3.24225 16.7445 3.5055C17.0077 3.76987 17.1562 4.1265 17.1562 4.5V7.3125C17.1562 7.77825 17.5343 8.15625 18 8.15625C18.4657 8.15625 18.8438 7.77825 18.8438 7.3125Z" fill="#2F2C8F"/>
<path fill-rule="evenodd" clip-rule="evenodd" d="M5.40444 2.56382L6.10419 4.31544C6.48894 5.27619 7.42044 5.90619 8.45544 5.90619H12.9194C13.9544 5.90619 14.8859 5.27619 15.2707 4.31544L15.9704 2.56382C16.1437 2.13069 15.9333 1.63907 15.5013 1.46694C15.0682 1.29369 14.5766 1.50407 14.4044 1.93607L13.7036 3.68882C13.5753 4.00832 13.2648 4.21869 12.9194 4.21869H8.45544C8.11007 4.21869 7.79957 4.00832 7.67132 3.68882L6.97044 1.93607C6.79832 1.50407 6.30669 1.29369 5.87357 1.46694C5.44157 1.63907 5.23119 2.13069 5.40444 2.56382Z" fill="#2F2C8F"/>
<path fill-rule="evenodd" clip-rule="evenodd" d="M8.4375 22.7812H12.9375C13.4033 22.7812 13.7812 22.4032 13.7812 21.9375C13.7812 21.4717 13.4033 21.0938 12.9375 21.0938H8.4375C7.97175 21.0938 7.59375 21.4717 7.59375 21.9375C7.59375 22.4032 7.97175 22.7812 8.4375 22.7812Z" fill="#2F2C8F"/>
</svg>
