<svg width="32" height="32" viewBox="0 0 32 32" fill="none" xmlns="http://www.w3.org/2000/svg">
<path d="M16 18.4741C17.3807 18.4741 18.5 17.3548 18.5 15.9741C18.5 14.5934 17.3807 13.4741 16 13.4741C14.6193 13.4741 13.5 14.5934 13.5 15.9741C13.5 17.3548 14.6193 18.4741 16 18.4741Z" fill="#00D8FF"/>
<path d="M16 21.7062C12.9951 21.7786 9.99785 21.3736 7.12 20.5062C5.79062 20.0848 4.55073 19.4209 3.463 18.5482C3.04779 18.2502 2.70202 17.8658 2.44948 17.4215C2.19693 16.9771 2.04359 16.4834 2 15.9742C2 14.3212 3.816 12.7012 6.858 11.6412C9.81291 10.7027 12.9 10.2475 16 10.2932C19.0587 10.2509 22.1044 10.6978 25.022 11.6172C26.3021 12.0258 27.4999 12.6575 28.56 13.4832C28.9675 13.7679 29.3077 14.1384 29.5565 14.5688C29.8053 14.9992 29.9567 15.4789 30 15.9742C30 17.6922 27.97 19.4332 24.7 20.5152C21.8779 21.3545 18.9438 21.7562 16 21.7062ZM16 11.4892C13.0342 11.4504 10.081 11.8831 7.251 12.7712C4.451 13.7482 3.196 15.0842 3.196 15.9712C3.196 16.8992 4.545 18.3582 7.507 19.3712C10.26 20.1972 13.1266 20.5816 16 20.5102C18.8164 20.5605 21.6239 20.1794 24.325 19.3802C27.4 18.3612 28.8 16.9002 28.8 15.9742C28.7494 15.6564 28.6335 15.3527 28.4597 15.0819C28.2858 14.8112 28.0578 14.5794 27.79 14.4012C26.8417 13.6684 25.7717 13.1085 24.629 12.7472C21.8379 11.8716 18.9249 11.4469 16 11.4892Z" fill="#00D8FF"/>
<path d="M10.3196 28.443C9.85312 28.4537 9.39213 28.3405 8.98361 28.115C7.55161 27.289 7.05561 24.907 7.65661 21.742C8.32001 18.7133 9.46812 15.8117 11.0566 13.149C12.5477 10.4783 14.4561 8.06321 16.7096 5.99501C17.7031 5.09012 18.8487 4.36801 20.0936 3.86201C20.5441 3.65155 21.0353 3.54248 21.5326 3.54248C22.0299 3.54248 22.5211 3.65155 22.9716 3.86201C24.4606 4.72001 24.9536 7.34801 24.2586 10.721C23.5756 13.5856 22.4573 16.3285 20.9426 18.854C19.5041 21.4932 17.6558 23.8874 15.4666 25.947C14.4374 26.8878 13.2429 27.63 11.9436 28.136C11.4236 28.3296 10.8744 28.4334 10.3196 28.443ZM12.0926 13.743C10.5775 16.2927 9.47712 19.067 8.83261 21.962C8.27961 24.877 8.81061 26.63 9.58261 27.076C10.3826 27.539 12.3246 27.1 14.6826 25.04C16.7727 23.0671 18.537 20.7753 19.9096 18.25C21.3605 15.8355 22.4333 13.2132 23.0906 10.474C23.7446 7.29901 23.1796 5.35501 22.3776 4.89301C22.077 4.77802 21.7558 4.72656 21.4343 4.74188C21.1128 4.7572 20.7979 4.83896 20.5096 4.98201C19.4013 5.43947 18.3824 6.08874 17.4996 6.90001C15.3467 8.88122 13.5238 11.1933 12.0996 13.749L12.0926 13.743Z" fill="#00D8FF"/>
<path d="M21.6777 28.456C20.3227 28.456 18.6017 27.636 16.8097 26.095C14.5169 24.0077 12.5763 21.5639 11.0627 18.858C9.49376 16.2322 8.35473 13.3724 7.68866 10.387C7.40047 9.0734 7.34698 7.71919 7.53066 6.38698C7.57385 5.89294 7.72458 5.41433 7.9723 4.98471C8.22002 4.55509 8.55872 4.18486 8.96466 3.89998C10.4517 3.03898 12.9747 3.92398 15.5497 6.20998C17.6903 8.23216 19.508 10.5707 20.9397 13.144C22.5077 15.7084 23.6587 18.5056 24.3497 21.431C24.6508 22.7927 24.6972 24.1984 24.4867 25.577C24.4368 26.0854 24.2774 26.5771 24.0195 27.0181C23.7616 27.4591 23.4113 27.8391 22.9927 28.132C22.5906 28.3542 22.1369 28.466 21.6777 28.456ZM12.0977 18.256C13.5498 20.8419 15.4036 23.1807 17.5897 25.185C19.8387 27.12 21.6227 27.536 22.3897 27.085C23.1897 26.62 23.7797 24.722 23.1717 21.651C22.5057 18.8579 21.4017 16.1878 19.9007 13.74C18.5345 11.2771 16.7994 9.03784 14.7557 7.09998C12.3317 4.94798 10.3657 4.46698 9.56466 4.93098C9.31514 5.13398 9.11036 5.38645 8.96321 5.67249C8.81606 5.95853 8.72973 6.27194 8.70966 6.59298C8.55079 7.78107 8.60258 8.98787 8.86266 10.158C9.50354 13.0129 10.5959 15.7473 12.0987 18.258L12.0977 18.256Z" fill="#00D8FF"/>
</svg>
