<svg width="24" height="24" viewBox="0 0 24 24" fill="none" xmlns="http://www.w3.org/2000/svg">
<path d="M12 13.8555C13.0355 13.8555 13.875 13.016 13.875 11.9805C13.875 10.9449 13.0355 10.1055 12 10.1055C10.9645 10.1055 10.125 10.9449 10.125 11.9805C10.125 13.016 10.9645 13.8555 12 13.8555Z" fill="#00D8FF"/>
<path d="M12 16.2794C9.74636 16.3337 7.49839 16.0299 5.34 15.3794C4.34297 15.0633 3.41305 14.5654 2.59725 13.9109C2.28584 13.6874 2.02652 13.3991 1.83711 13.0658C1.6477 12.7326 1.5327 12.3623 1.5 11.9804C1.5 10.7406 2.862 9.52563 5.1435 8.73063C7.35968 8.02677 9.67498 7.68538 12 7.71963C14.294 7.68791 16.5783 8.02314 18.7665 8.71263C19.7266 9.0191 20.6249 9.49289 21.42 10.1121C21.7257 10.3256 21.9808 10.6036 22.1674 10.9264C22.354 11.2492 22.4675 11.609 22.5 11.9804C22.5 13.2689 20.9775 14.5746 18.525 15.3861C16.4084 16.0157 14.2079 16.3169 12 16.2794ZM12 8.61663C9.77563 8.58756 7.56077 8.9121 5.43825 9.57813C3.33825 10.3109 2.397 11.3129 2.397 11.9781C2.397 12.6741 3.40875 13.7684 5.63025 14.5281C7.69503 15.1476 9.84495 15.436 12 15.3824C14.1123 15.4202 16.2179 15.1343 18.2438 14.5349C20.55 13.7706 21.6 12.6749 21.6 11.9804C21.562 11.7421 21.4751 11.5142 21.3447 11.3112C21.2144 11.1082 21.0434 10.9343 20.8425 10.8006C20.1313 10.2511 19.3287 9.83114 18.4718 9.56013C16.3784 8.90342 14.1937 8.58492 12 8.61663Z" fill="#00D8FF"/>
<path d="M7.73971 21.3321C7.38984 21.3401 7.0441 21.2552 6.73771 21.0861C5.66371 20.4666 5.29171 18.6801 5.74246 16.3064C6.24001 14.0349 7.10109 11.8586 8.29246 9.86164C9.41076 7.85864 10.8421 6.04728 12.5322 4.49614C13.2773 3.81747 14.1365 3.27588 15.0702 2.89639C15.4081 2.73854 15.7765 2.65674 16.1495 2.65674C16.5224 2.65674 16.8908 2.73854 17.2287 2.89639C18.3455 3.53989 18.7152 5.51089 18.194 8.04064C17.6817 10.1891 16.8429 12.2462 15.707 14.1404C14.6281 16.1198 13.2418 17.9154 11.6 19.4601C10.828 20.1657 9.93221 20.7223 8.95771 21.1019C8.56767 21.247 8.15582 21.3249 7.73971 21.3321ZM9.06946 10.3071C7.93313 12.2194 7.10784 14.3001 6.62446 16.4714C6.20971 18.6576 6.60796 19.9724 7.18696 20.3069C7.78696 20.6541 9.24346 20.3249 11.012 18.7799C12.5796 17.3002 13.9027 15.5814 14.9322 13.6874C16.0204 11.8765 16.825 9.90974 17.318 7.85539C17.8085 5.47414 17.3847 4.01614 16.7832 3.66964C16.5577 3.58339 16.3168 3.5448 16.0757 3.55629C15.8346 3.56777 15.5985 3.6291 15.3822 3.73639C14.551 4.07948 13.7868 4.56644 13.1247 5.17489C11.5101 6.66079 10.1429 8.39485 9.07471 10.3116L9.06946 10.3071Z" fill="#00D8FF"/>
<path d="M16.2568 21.342C15.2405 21.342 13.9498 20.727 12.6058 19.5712C10.8862 18.0058 9.43075 16.173 8.29553 14.1435C7.11886 12.1741 6.26458 10.0293 5.76503 7.79023C5.54889 6.80505 5.50877 5.7894 5.64653 4.79023C5.67892 4.4197 5.79197 4.06075 5.97776 3.73853C6.16355 3.41631 6.41758 3.13864 6.72203 2.92498C7.83728 2.27923 9.72953 2.94298 11.6608 4.65748C13.2662 6.17412 14.6296 7.92801 15.7033 9.85798C16.8793 11.7813 17.7426 13.8792 18.2608 16.0732C18.4866 17.0945 18.5215 18.1488 18.3635 19.1827C18.3261 19.5641 18.2066 19.9328 18.0132 20.2636C17.8197 20.5944 17.557 20.8794 17.243 21.099C16.9415 21.2657 16.6012 21.3495 16.2568 21.342ZM9.07178 13.692C10.1609 15.6314 11.5512 17.3856 13.1908 18.8887C14.8775 20.34 16.2155 20.652 16.7908 20.3137C17.3908 19.965 17.8333 18.5415 17.3773 16.2382C16.8778 14.1434 16.0498 12.1408 14.924 10.305C13.8994 8.45783 12.5981 6.77838 11.0653 5.32498C9.24728 3.71098 7.77278 3.35023 7.17203 3.69823C6.98489 3.85049 6.8313 4.03984 6.72094 4.25437C6.61058 4.4689 6.54583 4.70395 6.53078 4.94473C6.41163 5.8358 6.45047 6.7409 6.64553 7.61848C7.12619 9.75971 7.94549 11.8105 9.07253 13.6935L9.07178 13.692Z" fill="#00D8FF"/>
</svg>
